<?xml version="1.0" encoding="UTF-8"?>
<!DOCTYPE svg PUBLIC "-//W3C//DTD SVG 1.1//EN" "http://www.w3.org/Graphics/SVG/1.1/DTD/svg11.dtd">
<!-- Creator: CorelDRAW X8 -->
<svg xmlns="http://www.w3.org/2000/svg" xml:space="preserve" width="659.817mm" height="489.194mm" version="1.1" style="shape-rendering:geometricPrecision; text-rendering:geometricPrecision; image-rendering:optimizeQuality; fill-rule:evenodd; clip-rule:evenodd"
viewBox="0 0 67074 49729"
 xmlns:xlink="http://www.w3.org/1999/xlink">
 <defs>
  <style type="text/css">
   <![CDATA[
    .str0 {stroke:#703F2F;stroke-width:152.483}
    .fil28 {fill:none}
    .fil1 {fill:#243270}
    .fil37 {fill:#4F5961}
    .fil31 {fill:#513A36}
    .fil38 {fill:#6B8096}
    .fil34 {fill:#7B5A54}
    .fil35 {fill:#9DA5AA}
    .fil41 {fill:#D8A573}
    .fil27 {fill:#E0ACB1}
    .fil32 {fill:#E7DFE0}
    .fil40 {fill:#EBB986}
    .fil30 {fill:#FDAA36}
    .fil36 {fill:#FDCE9D}
    .fil29 {fill:#FECC68}
    .fil39 {fill:#FEFDC4}
    .fil12 {fill:#243642;fill-rule:nonzero}
    .fil22 {fill:#27475E;fill-rule:nonzero}
    .fil11 {fill:#33353C;fill-rule:nonzero}
    .fil15 {fill:#4CC5D8;fill-rule:nonzero}
    .fil25 {fill:#5F656C;fill-rule:nonzero}
    .fil13 {fill:#63C9DC;fill-rule:nonzero}
    .fil18 {fill:#644237;fill-rule:nonzero}
    .fil3 {fill:#703F2F;fill-rule:nonzero}
    .fil14 {fill:#75CEE0;fill-rule:nonzero}
    .fil24 {fill:#767D83;fill-rule:nonzero}
    .fil2 {fill:#7A4530;fill-rule:nonzero}
    .fil19 {fill:#7F5745;fill-rule:nonzero}
    .fil6 {fill:#875034;fill-rule:nonzero}
    .fil5 {fill:#8B5435;fill-rule:nonzero}
    .fil4 {fill:#975B39;fill-rule:nonzero}
    .fil23 {fill:#9DDAE5;fill-rule:nonzero}
    .fil7 {fill:#A5633B;fill-rule:nonzero}
    .fil8 {fill:#C0C1C2;fill-rule:nonzero}
    .fil26 {fill:#C1C7D7;fill-rule:nonzero}
    .fil9 {fill:#DDDDDC;fill-rule:nonzero}
    .fil21 {fill:#E0ACB1;fill-rule:nonzero}
    .fil20 {fill:#E0ACB1;fill-rule:nonzero}
    .fil17 {fill:#FABDC3;fill-rule:nonzero}
    .fil16 {fill:#FABDC3;fill-rule:nonzero}
    .fil10 {fill:#FEFEFE;fill-rule:nonzero}
    .fil33 {fill:black;fill-opacity:0.301961}
    .fil0 {fill:#E6E6E6;fill-opacity:0.400000}
   ]]>
  </style>
 </defs>
 <g id="Camada_x0020_1">
  <metadata id="CorelCorpID_0Corel-Layer"/>
  <path class="fil0" d="M7958 47653l54764 0c9222,-15643 3768,-37917 -16181,-38666 -6266,-235 -6290,-8599 -11086,-8929 -4795,-329 -12374,4970 -16063,5987 -3688,1016 -8139,-5993 -11434,-2250 -12201,13860 -8892,30048 0,43858z"/>
  <g id="_2825794593888">
   <ellipse class="fil1" cx="35038" cy="48295" rx="30267" ry="1434"/>
   <polygon class="fil2" points="15201,48493 27301,48493 27301,29296 15201,29296 "/>
   <polygon class="fil3" points="27301,48493 19295,48493 15201,32370 15201,29296 27301,29296 "/>
   <polygon class="fil4" points="13877,48493 15201,48493 15201,29296 13877,29296 "/>
   <polygon class="fil5" points="13877,32370 15201,32370 15201,29296 13877,29296 "/>
   <polygon class="fil4" points="43060,48493 44384,48493 44384,29296 43060,29296 "/>
   <polygon class="fil4" points="43060,48493 44384,48493 44384,29296 43060,29296 "/>
   <polygon class="fil5" points="43060,32370 44384,32370 44384,29296 43060,29296 "/>
   <polygon class="fil2" points="44384,48493 56558,48493 56558,29296 44384,29296 "/>
   <polygon class="fil3" points="56558,38866 44384,32370 44384,29296 56558,29296 "/>
   <polygon class="fil6" points="23779,30620 58685,30620 58685,29296 23779,29296 "/>
   <polygon class="fil7" points="11678,30620 46584,30620 46584,29296 11678,29296 "/>
   <polygon class="fil8" points="43502,28526 45129,28526 45129,26809 43502,26809 "/>
   <polygon class="fil9" points="42693,28526 44320,28526 44320,26809 42693,26809 "/>
   <path class="fil8" d="M50812 27083l-13458 0 0 -15783 13458 0c356,0 644,288 644,644l0 14495c0,356 -288,644 -644,644z"/>
   <path class="fil10" d="M49804 27083l-13963 0c-356,0 -645,-288 -645,-644l0 -14495c0,-356 289,-644 645,-644l13963 0c355,0 644,288 644,644l0 14495c0,356 -289,644 -644,644z"/>
   <path class="fil8" d="M49158 26160c0,98 -79,176 -177,176l-811 0c-98,0 -177,-78 -177,-176 0,-98 79,-178 177,-178l811 0c98,0 177,80 177,178z"/>
   <polygon class="fil11" points="36237,25206 49408,25206 49408,12318 36237,12318 "/>
   <polygon class="fil8" points="36237,25206 36522,25206 36522,12318 36237,12318 "/>
   <polygon class="fil8" points="39490,29295 49868,29295 49868,28526 39490,28526 "/>
   <polygon class="fil10" points="37903,29295 46888,29295 46888,28526 37903,28526 "/>
   <polygon class="fil10" points="40326,29296 28657,29296 28657,28835 33054,28339 40326,28339 "/>
   <polygon class="fil8" points="40326,29296 35929,29296 35929,28835 40326,28339 "/>
   <path class="fil12" d="M35348 47207l-115 1286 4640 0c-153,-1275 -2956,-1286 -2956,-1286l-1569 0z"/>
   <path class="fil13" d="M32142 35357c0,0 -2413,1328 -1844,1341 546,11 1280,328 1699,1647l3306 8862 1827 0 -3269 -11261c-244,-839 -1013,-1102 -1719,-589z"/>
   <path class="fil14" d="M20813 34302l7617 -1756 408 633 5679 442c870,64 1581,824 1587,1697l83 11889 -1897 0 -1168 -9416c-114,-866 -281,-1093 -1154,-1093 0,0 -3581,118 -6680,151 -1841,20 -3511,57 -4160,-382 -553,-375 -315,-2165 -315,-2165z"/>
   <path class="fil15" d="M33756 37739c-133,-864 -616,-1380 -1305,-1456 -153,-17 -149,-29 -8746,-640l4846 -2593 -3303 -17 -4486 982c0,0 -220,2057 366,2452 683,459 2326,415 4272,382 3061,-53 6639,-151 6639,-151 0,0 823,-213 1083,1251l1168 9258 921 0 -1455 -9468z"/>
   <polygon class="fil16" points="21763,19814 22984,17169 25551,17908 24866,20034 "/>
   <path class="fil17" d="M27204 13643c97,931 24,2846 -272,3734 -153,457 -741,1316 -1174,1529 -318,158 -1419,0 -1419,0l-1926 -1841 -659 -3422 983 -2390c0,0 2616,-442 3318,0 561,353 1080,1731 1149,2390z"/>
   <path class="fil18" d="M26775 13323c200,-46 1009,627 1009,627 0,0 120,-1117 -13,-1455 -247,-635 -1410,-1561 -2050,-1796 -524,-194 -1704,-150 -2234,27 -587,197 -1700,920 -1996,1464 -340,627 -278,2529 -221,3240 54,667 578,2076 1184,2771 150,171 1721,198 2146,16 353,-150 978,-938 1031,-1317 13,-89 -130,-236 -157,-321 -79,-249 -265,-794 -159,-1033 49,-112 286,-289 406,-270 196,32 489,627 489,627 0,0 -131,-1244 -21,-1638 74,-268 316,-880 586,-942z"/>
   <path class="fil19" d="M25721 10699c-524,-194 -1704,-150 -2234,27l2259 774c550,123 2025,995 2025,995 -247,-635 -1410,-1561 -2050,-1796z"/>
   <path class="fil15" d="M29360 33220l-522 -41 -408 -633 -5861 1670 737 1841c610,1 1251,-59 1876,-223 2437,-638 2918,-1751 4178,-2614z"/>
   <path class="fil20" d="M28887 27566l1384 144c0,0 788,163 1111,199 380,42 894,305 1231,488 380,206 100,441 0,414 -440,-115 -869,-273 -1231,-256 -342,16 -1091,103 -1433,116 -382,15 -1076,-695 -1076,-695l14 -410z"/>
   <path class="fil21" d="M30153 27710l-4951 -1477c-414,-138 -881,-1053 -1051,-1455l-1762 1211 1315 1645c289,327 876,619 1312,652l4933 385c0,0 379,-8 491,-399 170,-594 -287,-562 -287,-562z"/>
   <path class="fil16" d="M33675 27392l1384 144c0,0 788,163 1110,199 381,42 895,305 1231,488 380,206 101,440 0,414 -440,-115 -869,-273 -1231,-256 -341,16 -1091,103 -1433,116 -381,14 -1076,-695 -1076,-695l15 -410z"/>
   <path class="fil16" d="M34940 27536l-4160 -1478c-414,-137 -881,-1368 -1051,-1770l-1920 1211 1473 1960c289,327 876,619 1311,653l4143 385c0,0 379,-9 491,-400 171,-594 -287,-561 -287,-561z"/>
   <path class="fil14" d="M27809 25815c0,0 1569,-113 2236,-1211 0,0 -1671,-3784 -2515,-4486 -596,-496 -2498,-878 -3270,-953 -581,-55 -2365,4 -2365,4 -782,137 -2702,886 -2968,1613 -607,1661 1230,5697 1465,7336 128,882 151,3461 46,4347 -171,1444 -454,3054 -454,3054 0,0 2733,486 5198,-159 2439,-639 2578,-1424 4181,-2142 0,0 -916,-2231 -1084,-3014 -196,-912 -352,-2628 -470,-4389z"/>
   <path class="fil15" d="M27797 25801l-1965 -2221c66,1233 202,3417 370,4313 261,1396 1453,5030 1816,6122 376,-268 764,-537 1345,-797 0,0 -916,-2231 -1084,-3014 -203,-943 -363,-2670 -482,-4403z"/>
   <path class="fil22" d="M34400 47207l-116 1286 4641 0c-154,-1275 -2957,-1286 -2957,-1286l-1568 0z"/>
   <path class="fil23" d="M27809 22556c416,1191 1014,2181 1442,2803 302,-177 590,-420 794,-755 0,0 -1671,-3784 -2515,-4486 -596,-496 -2498,-878 -3270,-953 0,0 2833,1344 3549,3391z"/>
   <path class="fil8" d="M17170 31336l-1979 -8303c-35,-197 577,-565 777,-565l9068 0c200,0 391,162 426,362l1436 8144c35,200 -500,722 -700,722l-9028 -360z"/>
   <path class="fil10" d="M26154 31698l-9110 0c-200,0 -391,-162 -426,-362l-1436 -8144c-35,-200 98,-362 298,-362l9110 0c200,0 391,162 426,362l1436 8144c35,200 -98,362 -298,362z"/>
   <path class="fil10" d="M26895 37728l-9328 0c-262,0 -474,-212 -474,-475l0 -75c0,-262 212,-475 474,-475l9328 0c262,0 474,213 474,475l0 75c0,263 -212,475 -474,475z"/>
   <path class="fil8" d="M30963 37728l-3952 0c-262,0 -475,-212 -475,-475l0 -75c0,-262 213,-475 475,-475l3952 0c262,0 475,213 475,475l0 75c0,263 -213,475 -475,475z"/>
   <path class="fil24" d="M19144 37724c-520,0 -1101,-379 -1101,-845l0 -25 -2443 -13272 -796 0 2448 13324c16,897 946,1623 1892,1623l1699 0 0 -805 -1699 0z"/>
   <path class="fil25" d="M19144 37724c-520,0 -1101,-379 -1101,-845l0 -25 -2443 -13272 -398 0 2445 13297c0,689 758,1247 1497,1247l1699 0 0 -402 -1699 0z"/>
   <path class="fil24" d="M16933 48565l1175 -9137 3 -50c0,-466 423,-845 944,-845l1698 0c520,0 943,379 943,845l0 25 1178 9162 797 0 -1184 -9214c-15,-898 -787,-1623 -1734,-1623l-1698 0c-947,0 -1719,725 -1734,1623l-1184 9214 796 0z"/>
   <path class="fil25" d="M20753 38130l-1698 0c-740,0 -1339,559 -1339,1248l-1181 9187 398 0 1175 -9137 3 -50c0,-466 423,-845 944,-845l1698 0c520,0 943,379 943,845l0 25 1178 9162 399 0 -1181 -9187c0,-689 -599,-1248 -1339,-1248z"/>
   <path class="fil24" d="M27954 37724c-520,0 -1102,-379 -1102,-845l0 -25 -2442 -13272 -797 0 2449 13324c15,897 945,1623 1892,1623l1698 0 0 -805 -1698 0z"/>
   <path class="fil25" d="M27954 37724c-520,0 -1102,-379 -1102,-845l0 -25 -2442 -13272 -398 0 2445 13297c0,689 758,1247 1497,1247l1698 0 0 -402 -1698 0z"/>
   <path class="fil24" d="M25786 48565l1175 -9137 3 -50c0,-466 423,-845 943,-845l1699 0c520,0 943,379 943,845l0 25 1178 9162 796 0 -1183 -9214c-16,-898 -787,-1623 -1734,-1623l-1699 0c-946,0 -1718,725 -1733,1623l-1185 9214 797 0z"/>
   <path class="fil25" d="M29606 38130l-1699 0c-739,0 -1339,559 -1339,1248l-1180 9187 398 0 1175 -9137 3 -50c0,-466 423,-845 943,-845l1699 0c520,0 943,379 943,845l0 25 1178 9162 398 0 -1180 -9187c0,-689 -600,-1248 -1339,-1248z"/>
   <path class="fil24" d="M15600 23582c0,100 -178,181 -398,181 -220,0 -398,-81 -398,-181 0,-100 178,-181 398,-181 220,0 398,81 398,181z"/>
   <path class="fil24" d="M24410 23582c0,100 -178,181 -398,181 -220,0 -399,-81 -399,-181 0,-100 179,-181 399,-181 220,0 398,81 398,181z"/>
   <path class="fil26" d="M45264 20622c10,19 19,42 31,71 29,70 58,169 72,232l3 -8c28,-58 12,-165 -34,-234 -16,-22 -41,-43 -72,-61zm723 3464c-18,0 -38,-2 -57,-6 -24,-4 -47,-9 -70,-14 -154,-36 -263,-206 -236,-373l20 -126c21,-135 -10,-247 -41,-264 -40,-22 -76,-63 -100,-109 1,56 19,99 39,110 77,42 91,205 65,344l-3 15c-21,117 -106,195 -210,195 -41,0 -85,-13 -124,-39 -204,-131 -381,-304 -527,-512 -44,-63 -57,-136 -36,-207 22,-75 80,-136 158,-167l155 -62c121,-48 179,-130 166,-164 -15,-39 -124,-40 -221,4 -29,13 -50,24 -64,33 28,2 83,9 91,56 7,45 -36,82 -143,124 -35,14 -72,20 -109,20 -127,0 -239,-76 -278,-189 -54,-154 -94,-316 -119,-484 0,-2 -34,-232 10,-283l13 -15 23 -2c42,3 133,86 183,135 64,61 225,138 353,168l19 5c120,28 286,-10 355,-78 69,-70 94,-222 54,-334 -48,-134 -104,-257 -125,-288 -30,-42 -18,-101 16,-155 -51,40 -76,87 -70,109 8,38 2,77 -19,111 -15,25 -38,46 -64,61l3 1c119,21 231,109 256,200 26,91 -1,203 -61,255 -59,51 -149,75 -203,52l-6 -2c1,20 -5,37 -16,49 -9,11 -28,23 -63,23 -31,0 -68,-10 -109,-29 -80,-37 -198,-121 -269,-189 -66,-65 -92,-116 -77,-154 9,-22 30,-36 57,-36 55,0 147,41 205,79 39,25 113,33 168,19 -62,-17 -133,-52 -184,-95 -49,-41 -170,-59 -251,-35 -35,10 -155,44 -185,44l-41 0 -4 -52c0,-38 1,-76 3,-113 3,-81 70,-154 149,-161l3 -1 -15 -16c-65,-59 -92,-205 -60,-328 27,-99 125,-166 246,-167 -162,-92 -143,-137 -136,-154 19,-45 91,-55 148,-55 15,0 31,1 47,3 34,3 78,-2 120,-11 -37,0 -70,-2 -98,-6 -48,-7 -87,-31 -105,-67 -16,-32 -14,-70 5,-104 35,-63 154,-101 271,-112 -49,-10 -95,-30 -113,-67 -13,-25 -10,-55 9,-80 36,-49 91,-86 135,-91 -8,-37 -1,-75 23,-100 13,-14 31,-21 56,-21 44,0 113,22 180,59 23,12 36,13 40,13 1,0 3,-16 -8,-48 -12,-33 -67,-199 -4,-248 9,-6 22,-14 43,-14 45,0 101,34 146,72 -26,-81 -29,-172 23,-204 42,-25 116,-4 183,49 0,-22 5,-45 15,-68 31,-71 107,-132 200,-161 37,-12 75,-23 112,-32 21,-5 41,-8 62,-8 135,0 241,113 241,257 0,156 -98,279 -223,279l-12 -1c-60,-4 -120,18 -157,51 55,-25 125,-36 191,-28 113,15 201,155 201,318l0 48c0,60 -13,111 -36,148 -28,41 -67,64 -113,64 -30,0 -60,-10 -91,-28 -44,-28 -94,-44 -131,-44 -19,0 -34,4 -39,12 -15,27 7,121 76,209 81,101 131,256 114,351 -11,66 24,147 77,178 80,46 143,167 143,275 0,110 -64,225 -147,263 -38,17 -57,41 -62,56l0 16c35,63 1,146 -77,190 -69,38 -153,11 -190,-56 -10,19 -22,49 -35,95 -16,55 -14,103 5,129 13,17 33,22 59,17 92,-17 214,-76 268,-127 22,-22 45,-33 71,-33 68,0 108,79 108,212l0 219c0,114 -21,236 -79,270 52,64 79,216 79,342 0,172 -55,287 -136,287l-13 -1c-45,-7 -83,-30 -103,-62 -15,-24 -19,-50 -12,-76 6,-23 1,-108 -23,-192 -22,-80 -62,-192 -89,-251 -22,-50 -30,-116 -13,-165l-6 1c-13,2 -24,9 -31,21 -15,24 -15,60 -3,97l53 155 53 138c32,85 42,207 23,275l7 34c16,25 52,46 94,54 112,21 199,142 199,275 0,123 -107,220 -245,220z"/>
   <path class="fil26" d="M47363 20622c-31,18 -56,39 -71,61 -47,69 -63,176 -35,234l4 8c13,-63 41,-162 71,-232 12,-29 22,-52 31,-71zm-723 3464c-65,0 -127,-22 -172,-62 -47,-42 -73,-97 -73,-158 0,-133 87,-254 199,-275 43,-8 79,-29 95,-54l6 -34c-19,-69 -9,-190 24,-275l53 -140 52 -153c13,-37 12,-73 -2,-97 -8,-12 -18,-19 -32,-21l-7 -1c19,49 10,115 -12,165 -27,59 -66,171 -89,251 -24,84 -28,169 -22,192 7,26 2,52 -12,76 -21,32 -58,55 -103,62l-14 1c-26,0 -73,-12 -106,-94 -20,-50 -30,-116 -30,-186 0,-133 27,-285 79,-349 -20,-12 -41,-38 -56,-88 -15,-49 -23,-113 -23,-182l0 -219c0,-133 40,-212 109,-212 25,0 48,11 71,32 53,52 176,111 267,128 27,5 47,0 59,-17 20,-26 22,-74 5,-129 -13,-46 -25,-76 -35,-95 -39,70 -122,93 -190,56 -78,-44 -111,-127 -77,-190l0 -16c-5,-15 -24,-39 -62,-56 -82,-38 -147,-153 -147,-263 0,-108 63,-229 144,-275 53,-31 87,-112 76,-178 -17,-95 33,-250 114,-351 69,-88 92,-182 76,-209 -4,-8 -19,-12 -39,-12 -37,0 -86,16 -131,44 -30,18 -61,28 -90,28 -75,0 -150,-66 -150,-212l0 -48c0,-163 88,-303 201,-318 66,-8 137,3 192,28 -38,-33 -99,-54 -157,-51l-13 1c-62,0 -120,-30 -162,-85 -39,-52 -61,-120 -61,-194 0,-144 107,-257 242,-257 20,0 40,3 61,8 38,9 75,20 112,32 93,29 169,90 201,161 10,23 14,46 14,68 68,-53 141,-74 183,-49 53,32 50,123 24,204 44,-38 101,-72 146,-72 20,0 34,8 43,14 62,49 7,215 -4,248 -12,32 -9,48 -8,51 4,-3 16,-4 39,-16 68,-37 136,-59 180,-59 25,0 44,7 57,21 23,26 31,64 22,100 45,6 99,42 136,91 18,25 22,55 9,80 -19,37 -66,57 -114,67 119,12 237,50 272,112 19,34 20,72 4,104 -18,36 -56,60 -105,67 -27,4 -61,6 -98,6 43,9 87,14 121,11 16,-2 32,-3 47,-3 57,0 128,10 148,55 7,17 26,62 -137,154 121,1 220,68 246,167 32,123 6,269 -60,328l-15 16 4 1c78,7 145,80 149,161 1,37 3,75 3,113l-2 52 -44 0c-30,0 -150,-34 -185,-44 -81,-24 -201,-6 -251,35 -50,43 -121,78 -183,95 54,14 129,6 167,-19 58,-38 150,-79 205,-79 27,0 48,14 58,36 14,38 -11,89 -78,154 -70,68 -188,152 -268,189 -41,19 -79,29 -109,29 -35,0 -54,-12 -64,-23 -12,-13 -17,-30 -16,-49l-5 2c-54,23 -145,-1 -204,-52 -59,-53 -87,-164 -61,-255 25,-91 138,-179 256,-200l4 -1c-27,-15 -49,-36 -65,-61 -20,-34 -27,-73 -18,-111 5,-22 -20,-69 -71,-109 34,55 46,113 17,155 -22,31 -77,154 -126,288 -40,112 -15,264 55,334 68,68 235,106 355,78l18 -5c128,-30 290,-107 353,-168 50,-49 141,-132 181,-134l21 -2 18 18c43,51 9,281 9,283 -25,169 -65,331 -119,484 -39,113 -151,189 -277,189 -38,0 -75,-6 -109,-20 -108,-42 -151,-79 -143,-124 7,-47 63,-54 90,-56 -13,-8 -33,-19 -61,-32 -102,-46 -209,-44 -223,-5 -13,34 45,116 166,164l154 62c78,31 136,92 158,167 22,71 8,144 -36,207 -146,208 -323,381 -526,512 -40,26 -83,39 -125,39 -104,0 -188,-78 -210,-195l-3 -15c-25,-139 -12,-302 66,-344 19,-11 38,-54 38,-110 -24,46 -60,87 -99,109 -31,17 -63,129 -41,264l20 126c27,167 -82,337 -236,373 -23,5 -47,10 -71,14 -19,4 -39,6 -57,6z"/>
   <path class="fil26" d="M40601 24110l-4 0c-11,-1 -42,-4 -163,-143l-13 32c-35,54 -119,70 -218,42 -151,-42 -290,-215 -333,-351l-7 -19c-6,32 -20,59 -39,80 -53,56 -142,54 -225,-9 -15,-12 -31,-23 -46,-35 -110,-89 -144,-249 -87,-372 -62,41 -123,65 -169,65 -39,0 -60,-17 -70,-31 -45,-59 11,-177 70,-263 -52,37 -117,76 -161,76 -23,0 -42,-10 -52,-28 -33,-56 37,-188 80,-259 -95,54 -198,30 -232,-53 -37,-97 -1,-208 83,-248 43,-21 115,-46 185,-65 -59,3 -120,13 -160,27 -14,5 -29,8 -43,8 -96,0 -183,-101 -207,-240 -27,-158 -41,-323 -41,-489 0,-36 1,-72 3,-108 3,-65 67,-107 164,-107 30,0 62,4 94,12 91,22 141,59 146,105 2,15 -1,42 -31,66 63,22 124,85 150,161l10 26c19,-21 53,-38 118,-38 32,0 69,5 108,13 -48,-38 -68,-74 -58,-110 11,-41 54,-62 126,-62 69,0 105,-18 111,-30l-4 -13c-44,-69 -64,-162 -47,-221l-23 7c-20,8 -35,22 -42,40 -4,10 -6,26 3,43 25,48 12,81 3,97 -12,19 -47,53 -123,38 -77,-15 -176,-63 -223,-109 -32,-30 -137,-72 -238,-85 -85,-10 -158,-44 -190,-88 -20,-28 -21,-53 -18,-70 18,-94 205,-119 313,-119l22 0 -5 -1c-99,-30 -179,-89 -214,-158 -20,-39 -23,-78 -10,-114 27,-75 120,-121 242,-121 37,0 74,4 111,13l74 18c142,34 277,116 260,209 -5,26 27,69 80,95 -26,-41 -37,-87 -16,-122 27,-46 104,-53 166,-14l21 10c7,-34 27,-84 49,-132 -55,30 -112,43 -150,31 -65,-19 -101,-119 -103,-208l-2 2c-38,65 -133,107 -248,107 -39,0 -77,-5 -114,-14 -90,-22 -160,-74 -187,-140 -20,-47 -17,-97 9,-142 48,-81 149,-149 243,-169 -9,-11 -16,-25 -21,-39 -15,-51 3,-111 51,-164 61,-68 173,-97 270,-73 -7,-21 -11,-45 -9,-69 4,-75 48,-147 120,-198 101,-69 247,-87 340,-45 -1,-20 3,-40 9,-61 25,-70 94,-129 185,-156 31,-10 62,-18 94,-26 20,-5 40,-7 60,-7 136,0 243,114 243,261l0 450c0,118 -24,237 -78,280 52,54 78,176 78,282 0,104 -62,174 -153,174 -39,0 -81,-13 -124,-37l-25 -14c54,82 97,198 102,280 5,75 46,146 80,161 78,34 120,193 120,333l0 188c0,164 -100,303 -227,315 -96,10 -222,51 -276,90 -30,23 -42,48 -43,64l6 19c18,17 43,13 57,-9 43,-61 167,-107 261,-118 125,-14 222,110 222,276l0 41c0,63 -8,270 -111,270l-23 -4 -78 -28 -193 -81c-73,-30 -133,0 -140,73 52,-51 142,-63 217,-24 82,42 183,101 230,134 64,46 98,183 98,288 0,113 -47,213 -113,249 74,48 113,185 113,310 0,292 -39,292 -70,292z"/>
   <path class="fil26" d="M40904 24110c-50,0 -57,-61 -62,-111 -5,-48 -9,-113 -9,-181 0,-125 39,-262 114,-310 -67,-36 -114,-136 -114,-249 0,-105 35,-242 99,-288 47,-33 148,-92 229,-134 76,-39 165,-27 216,24 -5,-73 -65,-103 -139,-73l-270 109 -24 4c-27,0 -65,-16 -89,-95 -14,-45 -22,-108 -22,-175l0 -41c0,-166 97,-290 223,-276 94,11 217,57 260,118 15,22 40,26 57,9l6 -19c-1,-16 -13,-41 -43,-64 -53,-39 -180,-80 -276,-90 -127,-12 -227,-151 -227,-315l0 -188c0,-140 42,-299 121,-333 33,-15 75,-86 80,-161 5,-82 48,-198 102,-280l-26 14c-92,53 -185,47 -236,-12 -26,-31 -41,-74 -41,-125 0,-106 27,-228 78,-282 -53,-43 -78,-162 -78,-280l0 -450c0,-147 107,-261 244,-261 19,0 40,2 60,7 31,8 62,16 93,26 91,27 160,86 185,156 7,21 10,41 9,61 94,-42 240,-24 340,45 73,51 117,123 121,198 1,24 -2,48 -9,69 97,-24 209,5 270,73 48,53 66,113 50,164 -4,14 -11,28 -20,39 93,20 194,88 242,169 26,45 30,95 10,142 -28,66 -98,118 -188,140 -37,9 -75,14 -113,14 -115,0 -211,-42 -249,-108l-1 -1c-2,89 -38,189 -103,209 -39,11 -96,-2 -151,-32 23,48 43,98 50,132l20 -10c63,-39 139,-32 166,15 21,34 10,80 -15,121 52,-26 84,-69 79,-95 -17,-93 118,-175 261,-209l73 -18c37,-9 75,-13 112,-13 122,0 214,46 241,121 13,36 9,75 -10,114 -34,69 -114,128 -214,158l-4 1 21 0c108,0 296,25 313,119 3,17 2,42 -18,70 -32,44 -104,78 -189,88 -101,13 -206,55 -238,85 -48,46 -146,94 -223,109 -77,15 -112,-19 -123,-38 -10,-16 -23,-49 2,-97 10,-17 7,-33 3,-43 -6,-18 -21,-32 -41,-40l-24 -8c16,65 -4,155 -47,222l-4 13c7,12 42,30 111,30 73,0 115,21 126,62 10,36 -9,72 -57,110 39,-8 76,-13 108,-13 65,0 99,18 117,37l10 -25c27,-76 87,-139 151,-161 -30,-24 -33,-51 -32,-66 5,-46 55,-83 145,-105 34,-8 66,-12 96,-12 97,0 160,42 163,107 2,36 3,72 3,108 0,166 -14,331 -41,489 -23,139 -110,240 -207,240 -14,0 -29,-3 -42,-8 -41,-14 -101,-24 -161,-27 71,19 142,44 186,65 83,40 120,151 82,248 -33,83 -136,107 -232,53 42,71 113,203 81,259 -10,18 -30,28 -53,28 -44,0 -109,-39 -160,-76 58,86 114,204 70,263 -11,14 -32,31 -72,31 -44,0 -106,-24 -168,-65 57,123 23,283 -87,372 -15,12 -30,23 -45,35 -83,63 -173,65 -225,9 -20,-21 -33,-48 -40,-80l-6 19c-43,136 -183,309 -333,351 -99,28 -184,12 -219,-42l-13 -32c-121,139 -152,142 -162,143l-4 0z"/>
   <path class="fil26" d="M45979 18080c-16,0 -33,-1 -49,-5 -90,-16 -179,-40 -264,-70 -121,-41 -216,-139 -235,-232 -51,50 -126,63 -180,28 -58,-38 -77,-127 -51,-215 -76,44 -175,40 -230,-14 -57,-56 -77,-145 -52,-213 -69,14 -154,-25 -200,-92 -52,-79 -35,-219 39,-326 -20,8 -41,13 -63,13 -95,0 -185,-75 -226,-186l-6 -19c-49,-140 -25,-336 55,-437 52,-67 148,-117 249,-134 -91,-15 -190,1 -228,38 -33,32 -64,39 -85,39 -71,0 -123,-73 -132,-185 -7,-79 -10,-160 -10,-240l0 -28c2,-42 65,-80 117,-103 42,-19 100,-22 130,-22 31,0 63,3 92,8 -48,-37 -109,-61 -153,-61l-22 3c-13,5 -26,8 -39,8 -26,0 -51,-12 -69,-33 -26,-30 -37,-77 -28,-132 14,-99 116,-189 227,-200 105,-10 262,79 358,200l224 286c10,12 19,23 26,31 -27,-108 -35,-268 -18,-377 -65,43 -170,18 -250,-65 -78,-81 -209,-162 -287,-178 -58,-11 -106,-45 -131,-91 -23,-43 -26,-91 -8,-136 25,-64 98,-101 197,-101 50,0 103,10 155,29l77 28c75,27 163,43 238,43 56,0 84,-9 96,-15 59,-28 138,-46 195,-46 -29,-16 -113,-21 -180,7 -54,22 -117,34 -178,34 -39,0 -95,-6 -137,-31 -70,-42 -133,-161 -148,-277 -15,-122 52,-308 150,-414 281,-304 621,-512 984,-600 20,-5 41,-8 60,-8 137,0 243,115 243,262l0 1999c0,134 -31,297 -101,338 -40,23 -131,56 -223,81l212 20c64,6 112,78 112,169 0,96 -59,158 -124,134 -7,0 -19,4 -33,12 33,-4 62,1 82,17 60,44 75,229 75,332l0 141c0,133 -58,250 -141,296 83,48 141,167 141,300l0 120c0,151 -111,270 -253,270z"/>
   <path class="fil26" d="M46649 18080c-70,0 -134,-28 -182,-80 -46,-50 -72,-118 -72,-190l0 -120c0,-133 59,-252 142,-300 -83,-46 -142,-163 -142,-296l0 -141c0,-103 16,-288 76,-332 20,-16 47,-21 81,-17 -14,-8 -25,-11 -33,-11 -37,13 -80,-4 -103,-44 -14,-24 -21,-56 -21,-91 0,-91 49,-163 113,-169l212 -20c-93,-25 -183,-58 -223,-81 -70,-41 -102,-204 -102,-338l0 -1999c0,-147 107,-262 243,-262 20,0 41,3 60,8 364,88 704,296 985,600 97,106 165,292 149,414 -14,114 -80,235 -148,277 -42,25 -98,31 -137,31 -60,0 -124,-12 -177,-34 -68,-28 -152,-23 -180,-7 58,-1 135,18 195,46 11,6 39,15 96,15 74,0 163,-16 237,-43l78 -28c51,-19 105,-29 154,-29 99,0 172,37 197,101 18,45 16,93 -8,136 -25,46 -73,80 -130,91 -78,16 -210,97 -288,178 -79,83 -184,108 -250,65 17,109 9,269 -18,377 7,-8 16,-19 26,-31l225 -286c95,-121 254,-210 357,-200 111,11 213,101 228,200 8,55 -2,102 -28,132 -27,31 -68,40 -108,25l-23 -3c-43,0 -105,24 -153,61 30,-5 61,-8 92,-8 31,0 88,3 130,22 53,23 116,61 117,104l1 27c0,80 -4,160 -10,240 -9,112 -62,185 -133,185 -20,0 -52,-7 -85,-39 -37,-37 -136,-53 -227,-38 100,17 196,67 249,134 79,100 104,297 55,437l-7 19c-40,111 -131,186 -225,186 -22,0 -44,-5 -63,-13 73,107 91,247 38,326 -45,67 -130,106 -200,92 25,68 5,156 -51,213 -55,55 -155,58 -231,14 27,88 8,177 -51,215 -53,35 -128,22 -179,-28 -20,93 -115,191 -236,232 -85,30 -173,54 -264,70 -16,4 -32,5 -48,5z"/>
   <path class="fil26" d="M40455 18080l0 0c-16,0 -32,-2 -48,-5 -253,-47 -487,-143 -694,-284 -46,-30 -75,-78 -82,-132 -7,-57 11,-115 50,-159l9 -11 -32 19c-40,22 -88,35 -136,35 -68,0 -129,-25 -167,-68 -66,-75 -66,-212 0,-307l21 -30 -4 4c-36,31 -81,48 -126,48 -64,0 -122,-35 -154,-95 -118,-216 -203,-457 -253,-717 -21,-112 27,-222 109,-247 36,-10 81,-12 113,-12 60,0 126,8 180,20l106 26 -118 -81c-66,-45 -179,-76 -248,-65 -106,19 -190,-29 -192,-102 -1,-29 -1,-58 -1,-87 0,-195 23,-390 70,-580 25,-102 126,-214 228,-257l148 -60c24,-11 49,-15 74,-15 85,0 152,60 165,151l48 333 42 -186c24,-104 120,-219 220,-259l18 -7 -49 0c-98,0 -213,-37 -243,-108 -13,-30 -53,-57 -85,-57 -73,0 -131,-90 -136,-210l-1 -26c-4,-110 47,-255 114,-330 284,-316 632,-531 1005,-622 20,-5 40,-8 60,-8 136,0 243,115 243,262l0 2218c0,141 -97,243 -232,243 -22,0 -45,-3 -67,-8 -16,-4 -28,-7 -38,-9l7 6c123,89 169,240 105,344 -42,70 -43,174 -2,228 48,63 44,104 33,127 -5,10 -19,31 -51,37 11,10 25,22 42,35 114,87 203,276 203,430l0 308c0,72 -26,139 -72,190 -48,51 -113,80 -182,80z"/>
   <path class="fil26" d="M41041 18080c-143,0 -254,-119 -254,-270l0 -308c0,-154 89,-343 202,-430 18,-13 32,-25 43,-35 -32,-6 -47,-27 -51,-37 -12,-23 -15,-64 33,-127 42,-54 40,-158 -3,-228 -63,-104 -17,-255 106,-344l8 -6c-9,2 -20,4 -32,7 -29,7 -52,10 -75,10 -64,0 -123,-24 -166,-68 -42,-44 -65,-107 -65,-175l0 -2218c0,-147 106,-262 243,-262 20,0 40,3 60,8 373,91 720,306 1005,622 67,75 117,220 114,330l-2 26c-3,120 -62,210 -136,210 -31,0 -71,27 -84,57 -30,71 -145,108 -243,108l-49 0 18 7c100,40 196,155 220,259l42 186 48 -333c13,-91 79,-151 165,-151 24,0 49,4 74,15l148 60c103,43 203,155 228,257 47,190 70,385 70,580 0,29 0,58 -1,87 -3,73 -86,121 -192,102 -69,-11 -182,20 -248,65l-118 81 106 -26c54,-12 120,-20 180,-20 32,0 78,2 113,12 82,25 130,135 109,247 -50,260 -135,501 -253,717 -33,60 -90,95 -155,95 -44,0 -89,-17 -125,-48l-4 -4 21 30c65,95 65,232 0,307 -38,43 -99,68 -167,68 -48,0 -96,-13 -136,-35l-32 -19 9 11c39,44 57,102 50,159 -7,54 -36,102 -83,132 -207,141 -440,237 -693,284 -16,3 -32,5 -48,5z"/>
   <path class="fil10" d="M46309 19358c-1147,0 -2154,1153 -2154,2467 0,1452 886,2466 2154,2466 1269,0 2155,-1014 2155,-2466 0,-1314 -1007,-2467 -2155,-2467zm0 5018c-1318,0 -2239,-1049 -2239,-2551 0,-1359 1046,-2551 2239,-2551 1193,0 2240,1192 2240,2551 0,1502 -921,2551 -2240,2551z"/>
   <path class="fil10" d="M45264 20622c10,19 19,42 31,71 29,70 58,169 72,232l3 -8c28,-58 12,-165 -34,-234 -16,-22 -41,-43 -72,-61zm238 2378c49,0 53,59 54,82 4,54 44,122 88,146 84,47 106,212 83,352l-20 127c-19,122 61,251 172,276 22,5 44,10 67,14 109,20 202,-44 202,-131 0,-90 -59,-178 -130,-192 -67,-12 -122,-46 -151,-92 -20,-32 -25,-68 -16,-101 14,-52 4,-154 -22,-223l-52 -140 -54 -156c-21,-61 -17,-122 10,-167 21,-34 53,-56 91,-62 75,-12 111,1 125,35 4,10 10,39 -21,68 -11,10 -17,59 6,110 28,62 70,180 93,263 22,77 37,187 22,238 8,16 23,28 48,31 14,-4 51,-68 51,-195 0,-153 -37,-274 -64,-298 -25,-23 -57,-57 -43,-94 4,-9 22,-41 72,-33 14,-18 35,-85 35,-194l0 -219c0,-86 -19,-120 -27,-128l-9 9c-65,64 -202,130 -311,150 -61,12 -111,-7 -142,-49 -37,-49 -44,-121 -20,-204 52,-177 106,-177 123,-177 14,0 48,4 64,55 12,36 47,51 79,32 38,-20 53,-56 44,-74 -14,-25 -16,-54 -6,-84 14,-42 54,-83 106,-107 53,-23 99,-110 99,-185 0,-78 -47,-170 -102,-202 -83,-48 -134,-165 -117,-266 12,-72 -32,-201 -97,-283 -73,-92 -126,-229 -82,-305 41,-70 171,-68 286,2 37,23 68,21 88,-10 15,-22 24,-58 24,-101l0 -48c0,-128 -68,-226 -128,-233 -77,-11 -167,17 -197,56 -17,22 -38,45 -66,45l-21 0 -18 -20c-16,-22 -14,-53 5,-113 30,-97 153,-168 279,-160l1 0c84,0 145,-85 145,-194 0,-111 -94,-192 -198,-167 -36,9 -72,19 -107,30 -69,22 -127,67 -148,115 -6,13 -12,32 -4,48 15,33 27,70 10,98l-13 19 -30 4c-24,0 -49,-14 -84,-48 -45,-43 -91,-63 -110,-63 -4,6 -7,58 21,129 22,52 24,86 8,110 -23,35 -70,34 -131,-24 -44,-42 -83,-63 -103,-69 1,18 6,74 32,147 24,68 11,107 -3,128 -28,39 -84,44 -150,9 -59,-32 -111,-47 -135,-48l3 24c21,33 14,58 8,69 -13,25 -44,35 -80,27 -14,0 -49,18 -78,53 16,12 65,28 153,28l8 0c156,0 326,73 389,166 63,94 81,233 41,318 -26,55 -57,83 -91,83 -17,0 -57,-8 -69,-76 -10,-55 -40,-163 -70,-236 -25,-61 -39,-89 -47,-102 -35,0 -113,1 -208,2l-13 0c-133,1 -241,43 -257,71l-3 25c4,8 17,18 40,21 59,8 163,6 219,-3 14,-2 24,-3 33,-3 45,0 57,26 60,38 10,40 -29,68 -73,93 -73,41 -196,68 -280,60 -32,-3 -62,-2 -82,1 31,23 86,57 166,94l129 62c87,40 125,60 116,100l-8 33 -39 2c-8,0 -26,0 -111,-28l-136 -44c-27,-9 -54,-14 -81,-14 -85,0 -152,42 -168,105 -28,105 1,214 33,242 55,49 52,90 45,110 -4,14 -22,49 -81,55 -37,3 -71,41 -73,81 -1,23 -2,45 -2,68 28,-7 70,-17 122,-32 33,-10 70,-15 109,-15 87,0 169,25 219,66 54,45 145,85 196,85 47,0 74,15 81,46 12,51 -54,81 -82,95 -82,38 -209,32 -279,-14 -36,-24 -78,-44 -111,-55 8,10 18,22 31,34 64,62 174,140 246,173 25,13 50,21 67,22 2,-19 8,-36 20,-49 23,-26 63,-31 103,-15l17 3c30,0 70,-17 98,-41 35,-31 52,-109 36,-168 -17,-59 -105,-124 -190,-140 -64,-12 -130,-31 -131,-81 -1,-32 24,-54 73,-66 26,-6 49,-21 62,-42 6,-11 12,-27 8,-46 -20,-82 57,-187 178,-245 63,-30 89,-34 102,-34 24,0 43,12 50,32 14,36 -19,70 -52,98 -63,56 -79,114 -72,126 32,45 94,192 136,308 52,143 19,329 -74,422 -69,68 -196,112 -324,112 -39,0 -76,-4 -111,-12l-18 -4c-146,-35 -317,-118 -392,-190 -40,-39 -74,-68 -98,-87 -2,39 0,101 11,179 24,162 63,319 115,467 28,80 107,133 198,133 27,0 53,-4 78,-14 18,-7 33,-13 45,-19 -43,-7 -68,-25 -74,-55 -9,-46 35,-89 138,-136 156,-71 304,-50 338,42 35,93 -57,211 -214,273l-154 62c-54,21 -94,62 -108,112 -14,45 -6,93 24,135 139,199 309,363 503,489 88,57 185,8 205,-100l3 -16c26,-144 -4,-243 -23,-253 -68,-37 -99,-150 -74,-262 17,-76 34,-117 75,-117zm485 1086c-18,0 -38,-2 -57,-6 -24,-4 -47,-9 -70,-14 -154,-36 -263,-206 -236,-373l20 -126c21,-135 -10,-247 -41,-264 -40,-22 -76,-63 -100,-109 1,56 19,99 39,110 77,42 91,205 65,344l-3 15c-21,117 -106,195 -210,195 -41,0 -85,-13 -124,-39 -204,-131 -381,-304 -527,-512 -44,-63 -57,-136 -36,-207 22,-75 80,-136 158,-167l155 -62c121,-48 179,-130 166,-164 -15,-39 -124,-40 -221,4 -29,13 -50,24 -64,33 28,2 83,9 91,56 7,45 -36,82 -143,124 -35,14 -72,20 -109,20 -127,0 -239,-76 -278,-189 -54,-154 -94,-316 -119,-484 0,-2 -34,-232 10,-283l13 -15 23 -2c42,3 133,86 183,135 64,61 225,138 353,168l19 5c120,28 286,-10 355,-78 69,-70 94,-222 54,-334 -48,-134 -104,-257 -125,-288 -30,-42 -18,-101 16,-155 -51,40 -76,87 -70,109 8,38 2,77 -19,111 -15,25 -38,46 -64,61l3 1c119,21 231,109 256,200 26,91 -1,203 -61,255 -59,51 -149,75 -203,52l-6 -2c1,20 -5,37 -16,49 -9,11 -28,23 -63,23 -31,0 -68,-10 -109,-29 -80,-37 -198,-121 -269,-189 -66,-65 -92,-116 -77,-154 9,-22 30,-36 57,-36 55,0 147,41 205,79 39,25 113,33 168,19 -62,-17 -133,-52 -184,-95 -49,-41 -170,-59 -251,-35 -35,10 -155,44 -185,44l-41 0 -4 -52c0,-38 1,-76 3,-113 3,-81 70,-154 149,-161l3 -1 -15 -16c-65,-59 -92,-205 -60,-328 27,-99 125,-166 246,-167 -162,-92 -143,-137 -136,-154 19,-45 91,-55 148,-55 15,0 31,1 47,3 34,3 78,-2 120,-11 -37,0 -70,-2 -98,-6 -48,-7 -87,-31 -105,-67 -16,-32 -14,-70 5,-104 35,-63 154,-101 271,-112 -49,-10 -95,-30 -113,-67 -13,-25 -10,-55 9,-80 36,-49 91,-86 135,-91 -8,-37 -1,-75 23,-100 13,-14 31,-21 56,-21 44,0 113,22 180,59 23,12 36,13 40,13 1,0 3,-16 -8,-48 -12,-33 -67,-199 -4,-248 9,-6 22,-14 43,-14 45,0 101,34 146,72 -26,-81 -29,-172 23,-204 42,-25 116,-4 183,49 0,-22 5,-45 15,-68 31,-71 107,-132 200,-161 37,-12 75,-23 112,-32 21,-5 41,-8 62,-8 135,0 241,113 241,257 0,156 -98,279 -223,279l-12 -1c-60,-4 -120,18 -157,51 55,-25 125,-36 191,-28 113,15 201,155 201,318l0 48c0,60 -13,111 -36,148 -28,41 -67,64 -113,64 -30,0 -60,-10 -91,-28 -44,-28 -94,-44 -131,-44 -19,0 -34,4 -39,12 -15,27 7,121 76,209 81,101 131,256 114,351 -11,66 24,147 77,178 80,46 143,167 143,275 0,110 -64,225 -147,263 -38,17 -57,41 -62,56l0 16c35,63 1,146 -77,190 -69,38 -153,11 -190,-56 -10,19 -22,49 -35,95 -16,55 -14,103 5,129 13,17 33,22 59,17 92,-17 214,-76 268,-127 22,-22 45,-33 71,-33 68,0 108,79 108,212l0 219c0,114 -21,236 -79,270 52,64 79,216 79,342 0,172 -55,287 -136,287l-13 -1c-45,-7 -83,-30 -103,-62 -15,-24 -19,-50 -12,-76 6,-23 1,-108 -23,-192 -22,-80 -62,-192 -89,-251 -22,-50 -30,-116 -13,-165l-6 1c-13,2 -24,9 -31,21 -15,24 -15,60 -3,97l53 155 53 138c32,85 42,207 23,275l7 34c16,25 52,46 94,54 112,21 199,142 199,275 0,123 -107,220 -245,220z"/>
   <path class="fil10" d="M47363 20622c-31,18 -56,39 -71,61 -47,69 -63,176 -35,234l4 8c13,-63 41,-162 71,-232 12,-29 22,-52 31,-71zm-607 2107c13,0 29,1 47,4 38,6 71,28 91,62 28,45 31,106 10,167l-52 155 -54 141c-26,68 -35,171 -21,223 9,33 3,69 -17,101 -29,46 -84,80 -151,92 -70,14 -130,102 -130,192 0,36 16,69 44,94 40,34 97,49 158,37 23,-4 46,-9 68,-14 111,-25 191,-154 171,-276l-20 -127c-22,-140 -1,-305 83,-352 44,-24 85,-92 88,-146 2,-23 5,-82 55,-82 40,0 57,41 74,116 26,113 -6,226 -74,263 -19,10 -49,109 -22,253l3 16c20,108 116,157 205,100 194,-126 363,-290 503,-489 29,-42 38,-90 24,-135 -15,-50 -54,-91 -108,-113l-155 -61c-156,-62 -249,-180 -214,-273 21,-55 78,-86 158,-86 55,0 116,15 177,43 106,48 150,91 141,137 -6,30 -31,48 -73,55 12,6 26,12 44,19 25,10 52,14 79,14 90,0 170,-53 198,-133 51,-147 90,-305 114,-467 11,-78 13,-140 11,-179 -23,19 -58,48 -98,87 -74,72 -246,155 -392,190l-18 4c-34,8 -72,12 -111,12 -128,0 -255,-44 -323,-112 -94,-93 -126,-279 -74,-422 41,-116 104,-263 136,-308 7,-12 -10,-70 -73,-126 -32,-28 -66,-62 -52,-98 8,-20 27,-32 50,-32 14,0 39,4 102,34 121,58 198,163 178,245 -4,19 2,35 9,46 12,21 35,36 62,42 48,12 74,34 73,66 -2,50 -68,69 -132,81 -85,16 -173,81 -190,140 -16,59 1,137 36,168 28,24 68,41 98,41l17 -3c40,-17 81,-11 104,15 11,13 17,30 19,48 21,-2 44,-9 68,-21 71,-33 181,-111 245,-173 13,-13 24,-24 31,-34 -33,11 -75,31 -110,55 -71,46 -198,52 -280,14 -28,-14 -93,-44 -82,-95 7,-31 34,-46 82,-46 50,0 141,-40 195,-85 50,-41 132,-66 219,-66 39,0 76,5 110,15 51,15 93,25 122,32 -1,-23 -2,-45 -3,-68 -2,-40 -36,-78 -72,-81 -60,-6 -77,-41 -82,-55 -6,-20 -10,-61 45,-110 33,-28 62,-137 34,-242 -16,-63 -84,-105 -168,-105 -27,0 -55,5 -82,14l-135 44c-85,28 -104,28 -112,28l-34 0 -12 -35c-9,-40 29,-60 115,-100l130 -62c79,-37 134,-71 165,-94 -20,-3 -50,-4 -81,-1 -84,7 -208,-19 -281,-60 -44,-25 -83,-53 -73,-93 4,-12 16,-38 60,-38 9,0 20,1 34,3 56,9 159,11 218,3 24,-3 36,-13 41,-21l-3 -25c-16,-28 -124,-70 -258,-71 -103,-1 -185,-2 -221,-2 -7,13 -22,41 -47,102 -30,73 -60,181 -70,236 -11,68 -51,76 -68,76 -35,0 -66,-28 -92,-83 -39,-85 -22,-224 41,-318 63,-93 233,-166 389,-166l8 0c88,0 137,-16 153,-28 -28,-36 -64,-53 -77,-53 -36,8 -67,-2 -80,-27 -7,-11 -14,-36 7,-69l4 -24c-29,2 -79,18 -136,48 -66,35 -121,30 -149,-9 -15,-21 -27,-60 -3,-128 24,-68 30,-121 28,-146 -21,7 -58,28 -100,68 -61,58 -107,59 -130,24 -16,-24 -14,-58 7,-110 29,-71 25,-123 19,-132 -16,3 -62,23 -108,66 -35,34 -60,48 -83,48l-23 0 -20 -23c-18,-28 -5,-65 10,-98 7,-16 2,-35 -4,-48 -22,-48 -79,-93 -148,-115 -36,-11 -71,-21 -107,-30 -104,-26 -199,56 -199,167 0,55 16,106 44,142 26,34 60,52 95,52 14,-1 21,-1 27,-1 119,0 231,69 260,161 18,60 20,91 4,113l-13 17 -26 3c-28,0 -49,-23 -66,-45 -30,-39 -120,-67 -197,-56 -60,7 -128,105 -128,233l0 48c0,76 27,127 66,127 13,0 29,-6 46,-16 115,-70 246,-72 287,-2 44,76 -9,213 -82,305 -66,82 -110,211 -98,283 18,101 -33,218 -117,266 -54,32 -102,124 -102,202 0,75 47,162 99,185 53,24 92,65 107,107 9,29 7,59 -6,84 -10,18 6,54 43,74 33,18 67,4 80,-32 16,-51 50,-55 63,-55 17,0 71,0 123,177 24,83 18,155 -19,204 -32,42 -82,60 -142,49 -109,-20 -246,-86 -311,-150l-13 -9c-1,3 -24,35 -24,128l0 219c0,109 22,176 36,194l16 -1c39,0 52,25 55,34 14,37 -18,71 -43,94 -26,24 -64,145 -64,291 0,134 38,199 52,202 24,-3 40,-15 45,-23 -12,-60 3,-169 25,-246 23,-83 65,-201 93,-263 22,-51 16,-100 6,-110 -32,-29 -26,-58 -21,-68 10,-26 36,-39 77,-39zm-116 1357c-65,0 -127,-22 -172,-62 -47,-42 -73,-97 -73,-158 0,-133 87,-254 199,-275 43,-8 79,-29 95,-54l6 -34c-19,-69 -9,-190 24,-275l53 -140 52 -153c13,-37 12,-73 -2,-97 -8,-12 -18,-19 -32,-21l-7 -1c19,49 10,115 -12,165 -27,59 -66,171 -89,251 -24,84 -28,169 -22,192 7,26 2,52 -12,76 -21,32 -58,55 -103,62l-14 1c-26,0 -73,-12 -106,-94 -20,-50 -30,-116 -30,-186 0,-133 27,-285 79,-349 -20,-12 -41,-38 -56,-88 -15,-49 -23,-113 -23,-182l0 -219c0,-133 40,-212 109,-212 25,0 48,11 71,32 53,52 176,111 267,128 27,5 47,0 59,-17 20,-26 22,-74 5,-129 -13,-46 -25,-76 -35,-95 -39,70 -122,93 -190,56 -78,-44 -111,-127 -77,-190l0 -16c-5,-15 -24,-39 -62,-56 -82,-38 -147,-153 -147,-263 0,-108 63,-229 144,-275 53,-31 87,-112 76,-178 -17,-95 33,-250 114,-351 69,-88 92,-182 76,-209 -4,-8 -19,-12 -39,-12 -37,0 -86,16 -131,44 -30,18 -61,28 -90,28 -75,0 -150,-66 -150,-212l0 -48c0,-163 88,-303 201,-318 66,-8 137,3 192,28 -38,-33 -99,-54 -157,-51l-13 1c-62,0 -120,-30 -162,-85 -39,-52 -61,-120 -61,-194 0,-144 107,-257 242,-257 20,0 40,3 61,8 38,9 75,20 112,32 93,29 169,90 201,161 10,23 14,46 14,68 68,-53 141,-74 183,-49 53,32 50,123 24,204 44,-38 101,-72 146,-72 20,0 34,8 43,14 62,49 7,215 -4,248 -12,32 -9,48 -8,51 4,-3 16,-4 39,-16 68,-37 136,-59 180,-59 25,0 44,7 57,21 23,26 31,64 22,100 45,6 99,42 136,91 18,25 22,55 9,80 -19,37 -66,57 -114,67 119,12 237,50 272,112 19,34 20,72 4,104 -18,36 -56,60 -105,67 -27,4 -61,6 -98,6 43,9 87,14 121,11 16,-2 32,-3 47,-3 57,0 128,10 148,55 7,17 26,62 -137,154 121,1 220,68 246,167 32,123 6,269 -60,328l-15 16 4 1c78,7 145,80 149,161 1,37 3,75 3,113l-2 52 -44 0c-30,0 -150,-34 -185,-44 -81,-24 -201,-6 -251,35 -50,43 -121,78 -183,95 54,14 129,6 167,-19 58,-38 150,-79 205,-79 27,0 48,14 58,36 14,38 -11,89 -78,154 -70,68 -188,152 -268,189 -41,19 -79,29 -109,29 -35,0 -54,-12 -64,-23 -12,-13 -17,-30 -16,-49l-5 2c-54,23 -145,-1 -204,-52 -59,-53 -87,-164 -61,-255 25,-91 138,-179 256,-200l4 -1c-27,-15 -49,-36 -65,-61 -20,-34 -27,-73 -18,-111 5,-22 -20,-69 -71,-109 34,55 46,113 17,155 -22,31 -77,154 -126,288 -40,112 -15,264 55,334 68,68 235,106 355,78l18 -5c128,-30 290,-107 353,-168 50,-49 141,-132 181,-134l21 -2 18 18c43,51 9,281 9,283 -25,169 -65,331 -119,484 -39,113 -151,189 -277,189 -38,0 -75,-6 -109,-20 -108,-42 -151,-79 -143,-124 7,-47 63,-54 90,-56 -13,-8 -33,-19 -61,-32 -102,-46 -209,-44 -223,-5 -13,34 45,116 166,164l154 62c78,31 136,92 158,167 22,71 8,144 -36,207 -146,208 -323,381 -526,512 -40,26 -83,39 -125,39 -104,0 -188,-78 -210,-195l-3 -15c-25,-139 -12,-302 66,-344 19,-11 38,-54 38,-110 -24,46 -60,87 -99,109 -31,17 -63,129 -41,264l20 126c27,167 -82,337 -236,373 -23,5 -47,10 -71,14 -19,4 -39,6 -57,6z"/>
   <path class="fil10" d="M40748 19358c-1148,0 -2155,1153 -2155,2467 0,1452 886,2466 2155,2466 1269,0 2155,-1014 2155,-2466 0,-1314 -1007,-2467 -2155,-2467zm0 5018c-1319,0 -2239,-1049 -2239,-2551 0,-1359 1046,-2551 2239,-2551 1193,0 2240,1192 2240,2551 0,1502 -922,2551 -2240,2551z"/>
   <path class="fil10" d="M40375 23811c23,0 48,13 104,78 40,48 74,83 99,107 4,-39 8,-100 8,-178 0,-134 -48,-232 -81,-242 -52,-14 -78,-38 -78,-71 2,-33 28,-56 80,-67 34,-8 79,-79 79,-179 0,-107 -37,-200 -63,-219 -43,-31 -141,-88 -218,-128 -55,-28 -118,-11 -136,37 -8,20 -27,67 -67,67l-19 0 -17 -16c-15,-14 -27,-41 -25,-134 4,-103 74,-175 169,-175 29,0 59,6 89,19l256 104c13,-20 31,-83 31,-183l0 -41c0,-111 -58,-200 -127,-192 -89,11 -180,53 -201,83 -44,63 -134,73 -186,20 -23,-23 -33,-53 -31,-86 3,-45 31,-91 77,-125 66,-48 205,-95 317,-106 82,-8 151,-114 151,-231l0 -188c0,-146 -45,-245 -69,-255 -68,-29 -124,-130 -131,-233 -5,-78 -55,-201 -109,-269 -23,-28 -46,-65 -29,-98 4,-10 18,-31 52,-31 11,0 45,0 137,52 29,17 57,26 81,26 59,0 68,-56 68,-89 0,-122 -38,-217 -58,-227 -44,-24 -62,-50 -55,-80 5,-20 22,-43 75,-43 8,-9 38,-85 38,-212l0 -450c0,-113 -93,-197 -198,-172 -30,7 -60,16 -89,25 -77,24 -118,69 -129,103 -8,22 -6,40 5,56 31,46 45,76 31,102l-12 23 -30 2c-18,0 -39,-9 -88,-54 -54,-49 -199,-43 -287,19 -51,35 -82,84 -85,132 -1,22 4,53 31,78 48,42 76,69 64,103l-11 27 -33 2c-13,0 -31,-3 -94,-41 -72,-43 -189,-31 -239,25 -32,36 -38,67 -33,84 4,12 14,19 29,24 30,8 86,22 80,69 -6,49 -70,49 -116,49 -77,0 -181,62 -223,133 -12,21 -14,44 -4,66 17,41 67,75 130,91 108,26 237,-1 268,-54 28,-48 57,-71 88,-71 21,0 69,10 71,108 2,76 31,126 43,132 35,0 88,-19 132,-55 29,-25 50,-35 71,-35l24 0 19 24c15,25 9,55 -19,106 -41,72 -67,144 -68,163 -4,60 -75,84 -147,40 -21,-13 -48,-14 -51,-13 2,4 13,38 49,71 11,11 46,43 32,80 -4,10 -18,34 -58,34 -20,0 -48,-6 -83,-18 -103,-37 -173,-125 -158,-202 3,-15 -60,-78 -197,-110l-74 -18c-111,-26 -234,2 -253,55 -5,14 -3,30 6,48 23,46 88,91 163,114l35 11c66,19 135,45 127,99 -8,53 -81,57 -150,57l-54 0c-130,0 -219,34 -230,52 3,9 47,45 136,56 96,12 229,55 285,108 36,35 119,74 181,87 16,3 31,1 35,0l-6 -13c-19,-35 -21,-74 -7,-112 15,-39 47,-72 89,-89 23,-9 45,-15 65,-15 38,0 58,19 65,31 9,11 21,37 7,75 -10,31 3,104 37,156 21,34 24,69 7,100 -26,47 -94,74 -186,74 -16,0 -28,1 -35,3 9,11 29,27 64,47l41 25c80,47 115,76 105,115 -5,17 -21,36 -53,36 -14,0 -40,-3 -108,-26l-33 -11c-57,-19 -114,-30 -157,-30 -37,0 -54,7 -56,10 -12,47 -45,52 -59,52 -37,0 -68,-35 -93,-108 -23,-66 -82,-113 -120,-113 -49,0 -78,-16 -86,-46 -11,-49 49,-79 73,-90 -12,-8 -35,-18 -71,-27 -27,-7 -52,-10 -75,-10 -52,0 -79,15 -79,26 -2,34 -3,69 -3,104 0,161 14,321 40,475 19,116 90,184 138,166 81,-28 223,-40 313,-26 29,4 96,15 96,66 1,53 -71,66 -105,73 -88,17 -206,53 -265,81 -42,21 -61,86 -40,140 19,47 89,36 150,-16 53,-46 78,-53 94,-53l26 0 19 26c13,24 11,56 -45,143 -50,77 -77,140 -89,177 32,-16 85,-49 148,-103l49 -42c75,-65 97,-71 114,-71l26 0 16 27c14,28 0,59 -61,136l-55 69c-83,105 -114,197 -107,217 31,-5 94,-30 163,-85 61,-49 86,-56 104,-56l26 0 19 27c15,29 3,63 -47,133 -64,90 -43,230 45,301 15,12 29,23 44,34 46,35 89,43 112,19 15,-16 23,-45 21,-82 -5,-82 4,-110 20,-125l13 -14 22 -2c38,0 61,33 92,131l20 63c41,130 168,265 276,295 64,19 115,7 124,-6l-3 -25c-19,-41 -27,-71 -12,-95l13 -20 27 -2zm226 299l-4 0c-11,-1 -42,-4 -163,-143l-13 32c-35,54 -119,70 -218,42 -151,-42 -290,-215 -333,-351l-7 -19c-6,32 -20,59 -39,80 -53,56 -142,54 -225,-9 -15,-12 -31,-23 -46,-35 -110,-89 -144,-249 -87,-372 -62,41 -123,65 -169,65 -39,0 -60,-17 -70,-31 -45,-59 11,-177 70,-263 -52,37 -117,76 -161,76 -23,0 -42,-10 -52,-28 -33,-56 37,-188 80,-259 -95,54 -198,30 -232,-53 -37,-97 -1,-208 83,-248 43,-21 115,-46 185,-65 -59,3 -120,13 -160,27 -14,5 -29,8 -43,8 -96,0 -183,-101 -207,-240 -27,-158 -41,-323 -41,-489 0,-36 1,-72 3,-108 3,-65 67,-107 164,-107 30,0 62,4 94,12 91,22 141,59 146,105 2,15 -1,42 -31,66 63,22 124,85 150,161l10 26c19,-21 53,-38 118,-38 32,0 69,5 108,13 -48,-38 -68,-74 -58,-110 11,-41 54,-62 126,-62 69,0 105,-18 111,-30l-4 -13c-44,-69 -64,-162 -47,-221l-23 7c-20,8 -35,22 -42,40 -4,10 -6,26 3,43 25,48 12,81 3,97 -12,19 -47,53 -123,38 -77,-15 -176,-63 -223,-109 -32,-30 -137,-72 -238,-85 -85,-10 -158,-44 -190,-88 -20,-28 -21,-53 -18,-70 18,-94 205,-119 313,-119l22 0 -5 -1c-99,-30 -179,-89 -214,-158 -20,-39 -23,-78 -10,-114 27,-75 120,-121 242,-121 37,0 74,4 111,13l74 18c142,34 277,116 260,209 -5,26 27,69 80,95 -26,-41 -37,-87 -16,-122 27,-46 104,-53 166,-14l21 10c7,-34 27,-84 49,-132 -55,30 -112,43 -150,31 -65,-19 -101,-119 -103,-208l-2 2c-38,65 -133,107 -248,107 -39,0 -77,-5 -114,-14 -90,-22 -160,-74 -187,-140 -20,-47 -17,-97 9,-142 48,-81 149,-149 243,-169 -9,-11 -16,-25 -21,-39 -15,-51 3,-111 51,-164 61,-68 173,-97 270,-73 -7,-21 -11,-45 -9,-69 4,-75 48,-147 120,-198 101,-69 247,-87 340,-45 -1,-20 3,-40 9,-61 25,-70 94,-129 185,-156 31,-10 62,-18 94,-26 20,-5 40,-7 60,-7 136,0 243,114 243,261l0 450c0,118 -24,237 -78,280 52,54 78,176 78,282 0,104 -62,174 -153,174 -39,0 -81,-13 -124,-37l-25 -14c54,82 97,198 102,280 5,75 46,146 80,161 78,34 120,193 120,333l0 188c0,164 -100,303 -227,315 -96,10 -222,51 -276,90 -30,23 -42,48 -43,64l6 19c18,17 43,13 57,-9 43,-61 167,-107 261,-118 125,-14 222,110 222,276l0 41c0,63 -8,270 -111,270l-23 -4 -78 -28 -193 -81c-73,-30 -133,0 -140,73 52,-51 142,-63 217,-24 82,42 183,101 230,134 64,46 98,183 98,288 0,113 -47,213 -113,249 74,48 113,185 113,310 0,292 -39,292 -70,292z"/>
   <path class="fil10" d="M41256 22898c-19,0 -38,5 -56,14 -77,40 -175,97 -218,128 -27,19 -64,112 -64,219 0,100 46,171 79,179 53,11 79,34 80,67 1,33 -25,57 -77,71 -33,10 -82,108 -82,242 0,78 4,139 9,178 24,-24 58,-59 98,-107 56,-65 81,-78 104,-78l23 0 17 22c16,24 8,54 -11,95l-3 25c8,13 59,25 123,6 108,-30 235,-165 276,-295l20 -63c32,-98 55,-131 92,-131l18 0 18 16c15,15 24,43 20,125 -2,37 5,66 20,82 23,24 67,16 112,-19 15,-11 30,-22 44,-34 88,-71 110,-211 46,-301 -50,-70 -63,-104 -48,-133l12 -23 33 -4c18,0 43,7 105,56 68,55 131,80 160,80 9,-15 -22,-107 -104,-212l-55 -69c-62,-77 -75,-108 -61,-136l11 -24 30 -3c17,0 39,6 115,71l48 42c65,56 119,89 151,104 -12,-34 -41,-99 -92,-178 -55,-87 -58,-119 -45,-143l13 -22 31 -4c18,0 42,7 96,53 60,53 131,63 149,16 22,-54 3,-119 -40,-140 -59,-28 -178,-64 -264,-81 -35,-7 -106,-20 -106,-73 1,-51 68,-62 96,-66 90,-14 232,-2 314,26 47,18 118,-50 138,-166 26,-154 39,-314 39,-475 0,-35 -1,-70 -2,-104 -1,-11 -28,-26 -79,-26 -24,0 -49,3 -75,10 -38,9 -60,19 -72,27 24,11 84,41 73,90 -7,30 -36,46 -86,46 -37,0 -96,47 -119,113 -25,73 -56,108 -93,108 -14,0 -47,-5 -61,-55 0,0 -17,-7 -54,-7 -44,0 -100,11 -158,30l-32 11c-69,23 -95,26 -109,26 -31,0 -48,-19 -52,-36 -11,-39 25,-68 103,-115l43 -25c34,-20 54,-36 64,-47 -8,-2 -19,-3 -36,-3 -92,0 -160,-27 -185,-74 -17,-31 -15,-66 6,-100 34,-52 48,-125 37,-156 -13,-38 -1,-64 7,-75 8,-12 27,-31 66,-31 19,0 41,6 65,15 42,17 74,50 89,89 13,38 11,77 -8,112l-4 14 13 1 21 -2c61,-13 144,-52 180,-87 57,-53 190,-96 286,-108 88,-11 133,-47 134,-59 -10,-15 -98,-49 -229,-49l-53 0c-69,0 -143,-4 -151,-57 -7,-54 62,-80 128,-99l34 -11c76,-23 140,-68 164,-114 8,-18 10,-34 5,-48 -19,-53 -141,-81 -253,-55l-74 18c-137,32 -199,95 -196,110 14,77 -55,165 -159,202 -35,12 -63,18 -83,18 -40,0 -53,-24 -57,-34 -15,-37 20,-69 32,-80 32,-29 45,-60 45,-72l-6 0c-12,0 -27,6 -41,14 -72,44 -144,20 -148,-40 0,-19 -27,-91 -67,-163 -28,-51 -34,-81 -20,-106l12 -20 32 -4c20,0 41,10 71,35 43,36 96,55 123,55 20,-6 50,-56 51,-132 2,-98 51,-108 71,-108 32,0 60,23 88,71 31,53 160,80 268,54 64,-16 114,-50 131,-91 9,-22 8,-45 -5,-66 -42,-71 -146,-133 -222,-133 -46,0 -110,0 -117,-49 -6,-47 50,-61 80,-69 16,-5 25,-12 29,-24 5,-17 0,-48 -32,-84 -51,-56 -168,-68 -240,-25 -63,38 -81,41 -94,41l-29 0 -14 -29c-13,-34 15,-61 63,-103 28,-25 32,-56 31,-78 -2,-48 -34,-97 -84,-132 -89,-62 -233,-68 -287,-19 -50,45 -70,54 -89,54l-26 0 -15 -25c-15,-26 0,-56 31,-102 11,-16 12,-34 5,-56 -12,-34 -53,-79 -129,-103 -30,-9 -60,-18 -90,-25 -104,-26 -198,59 -198,172l0 450c0,127 30,203 46,213 45,-1 62,22 67,42 8,30 -11,56 -54,79 -21,11 -59,106 -59,228 0,30 7,54 20,69 25,28 75,25 130,-6 92,-52 125,-52 136,-52 35,0 49,21 53,31 16,33 -7,70 -30,98 -54,68 -103,191 -109,269 -7,103 -62,204 -131,233 -23,10 -69,109 -69,255l0 188c0,117 69,223 151,231 112,11 252,58 317,106 47,34 74,80 78,125 2,33 -9,63 -31,86 -53,53 -142,43 -187,-20 -20,-30 -111,-72 -200,-83 -69,-8 -128,81 -128,192l0 41c0,101 19,165 32,183l66 -25 190 -79c30,-13 59,-19 88,-19 96,0 165,72 169,175 3,93 -10,120 -24,134l-12 13 -24 3c-41,0 -59,-47 -67,-67 -13,-32 -43,-51 -80,-51zm-352 1212c-50,0 -57,-61 -62,-111 -5,-48 -9,-113 -9,-181 0,-125 39,-262 114,-310 -67,-36 -114,-136 -114,-249 0,-105 35,-242 99,-288 47,-33 148,-92 229,-134 76,-39 165,-27 216,24 -5,-73 -65,-103 -139,-73l-270 109 -24 4c-27,0 -65,-16 -89,-95 -14,-45 -22,-108 -22,-175l0 -41c0,-166 97,-290 223,-276 94,11 217,57 260,118 15,22 40,26 57,9l6 -19c-1,-16 -13,-41 -43,-64 -53,-39 -180,-80 -276,-90 -127,-12 -227,-151 -227,-315l0 -188c0,-140 42,-299 121,-333 33,-15 75,-86 80,-161 5,-82 48,-198 102,-280l-26 14c-92,53 -185,47 -236,-12 -26,-31 -41,-74 -41,-125 0,-106 27,-228 78,-282 -53,-43 -78,-162 -78,-280l0 -450c0,-147 107,-261 244,-261 19,0 40,2 60,7 31,8 62,16 93,26 91,27 160,86 185,156 7,21 10,41 9,61 94,-42 240,-24 340,45 73,51 117,123 121,198 1,24 -2,48 -9,69 97,-24 209,5 270,73 48,53 66,113 50,164 -4,14 -11,28 -20,39 93,20 194,88 242,169 26,45 30,95 10,142 -28,66 -98,118 -188,140 -37,9 -75,14 -113,14 -115,0 -211,-42 -249,-108l-1 -1c-2,89 -38,189 -103,209 -39,11 -96,-2 -151,-32 23,48 43,98 50,132l20 -10c63,-39 139,-32 166,15 21,34 10,80 -15,121 52,-26 84,-69 79,-95 -17,-93 118,-175 261,-209l73 -18c37,-9 75,-13 112,-13 122,0 214,46 241,121 13,36 9,75 -10,114 -34,69 -114,128 -214,158l-4 1 21 0c108,0 296,25 313,119 3,17 2,42 -18,70 -32,44 -104,78 -189,88 -101,13 -206,55 -238,85 -48,46 -146,94 -223,109 -77,15 -112,-19 -123,-38 -10,-16 -23,-49 2,-97 10,-17 7,-33 3,-43 -6,-18 -21,-32 -41,-40l-24 -8c16,65 -4,155 -47,222l-4 13c7,12 42,30 111,30 73,0 115,21 126,62 10,36 -9,72 -57,110 39,-8 76,-13 108,-13 65,0 99,18 117,37l10 -25c27,-76 87,-139 151,-161 -30,-24 -33,-51 -32,-66 5,-46 55,-83 145,-105 34,-8 66,-12 96,-12 97,0 160,42 163,107 2,36 3,72 3,108 0,166 -14,331 -41,489 -23,139 -110,240 -207,240 -14,0 -29,-3 -42,-8 -41,-14 -101,-24 -161,-27 71,19 142,44 186,65 83,40 120,151 82,248 -33,83 -136,107 -232,53 42,71 113,203 81,259 -10,18 -30,28 -53,28 -44,0 -109,-39 -160,-76 58,86 114,204 70,263 -11,14 -32,31 -72,31 -44,0 -106,-24 -168,-65 57,123 23,283 -87,372 -15,12 -30,23 -45,35 -83,63 -173,65 -225,9 -20,-21 -33,-48 -40,-80l-6 19c-43,136 -183,309 -333,351 -99,28 -184,12 -219,-42l-13 -32c-121,139 -152,142 -162,143l-4 0z"/>
   <path class="fil10" d="M46309 13353c-1147,0 -2154,1153 -2154,2467 0,1451 886,2466 2154,2466 1269,0 2155,-1015 2155,-2466 0,-1314 -1007,-2467 -2155,-2467zm0 5018c-1318,0 -2239,-1050 -2239,-2551 0,-1359 1046,-2552 2239,-2552 1193,0 2240,1193 2240,2552 0,1501 -921,2551 -2240,2551z"/>
   <path class="fil10" d="M45467 17611l20 0 17 18c15,17 18,45 9,99 -9,51 59,156 181,198 81,27 166,50 252,66 109,20 202,-66 202,-182l0 -120c0,-128 -68,-228 -128,-238 -41,-6 -104,-16 -104,-66 2,-50 67,-57 106,-61 59,-7 126,-104 126,-231l0 -141c0,-145 -27,-247 -43,-265l-9 -1c-27,0 -74,16 -121,53 -42,32 -60,38 -76,38l-27 0 -14 -26c-13,-27 -2,-54 49,-115 63,-74 165,-147 230,-124 0,-2 11,-20 11,-55 0,-50 -24,-83 -36,-84l-269 -26c-40,-4 -116,-11 -120,-66 -3,-54 70,-72 108,-81 109,-26 221,-66 258,-87 19,-12 59,-117 59,-264l0 -1999c0,-114 -94,-197 -199,-172 -346,85 -673,284 -942,576 -89,96 -139,259 -128,345 13,96 67,191 108,216 43,26 160,22 239,-10 44,-18 93,-28 140,-28 67,0 120,20 149,57 34,40 43,74 30,102 -13,28 -45,40 -86,29 -3,-1 -12,-3 -25,-3 -45,0 -108,16 -155,38 -80,38 -261,25 -399,-25l-78 -29c-104,-39 -224,-24 -243,24 -8,22 -8,44 3,64 14,25 40,42 73,49 96,19 242,108 332,202 60,62 132,81 158,34 18,-33 39,-63 72,-63l20 0 18 18c16,18 22,48 6,134 -18,101 -9,267 18,368 15,54 14,88 -3,110 -11,14 -27,22 -45,22 -23,0 -60,-11 -129,-101l-225 -285c-76,-97 -205,-175 -283,-168 -72,7 -143,67 -152,127 -5,35 2,57 9,65l13 1c68,-27 188,10 272,81 39,31 80,74 65,117 -5,15 -31,51 -112,29 -67,-18 -167,-17 -206,1 -34,15 -58,32 -67,40l0 14c0,78 3,156 9,232 6,74 32,108 48,108l26 -14c45,-44 122,-69 215,-69 63,0 127,11 185,33 97,36 140,60 132,103 -3,19 -18,42 -66,42 -15,0 -37,-2 -65,-6 -106,-16 -241,35 -297,105 -54,69 -84,233 -41,357l6 19c36,97 129,155 192,116 73,-46 117,-41 135,-4 15,30 2,69 -43,131 -57,76 -77,186 -43,236 36,54 97,68 127,52 53,-27 91,-20 108,11 17,32 -3,68 -19,93 -21,31 -16,97 24,137 18,17 41,21 58,21 35,0 71,-16 98,-42 36,-34 61,-49 85,-49l23 0 19 23c16,24 10,56 -17,110 -33,66 -26,137 2,156 29,18 75,-6 97,-51 22,-41 42,-69 73,-69zm512 469c-16,0 -33,-1 -49,-5 -90,-16 -179,-40 -264,-70 -121,-41 -216,-139 -235,-232 -51,50 -126,63 -180,28 -58,-38 -77,-127 -51,-215 -76,44 -175,40 -230,-14 -57,-56 -77,-145 -52,-213 -69,14 -154,-25 -200,-92 -52,-79 -35,-219 39,-326 -20,8 -41,13 -63,13 -95,0 -185,-75 -226,-186l-6 -19c-49,-140 -25,-336 55,-437 52,-67 148,-117 249,-134 -91,-15 -190,1 -228,38 -33,32 -64,39 -85,39 -71,0 -123,-73 -132,-185 -7,-79 -10,-160 -10,-240l0 -28c2,-42 65,-80 117,-103 42,-19 100,-22 130,-22 31,0 63,3 92,8 -48,-37 -109,-61 -153,-61l-22 3c-13,5 -26,8 -39,8 -26,0 -51,-12 -69,-33 -26,-30 -37,-77 -28,-132 14,-99 116,-189 227,-200 105,-10 262,79 358,200l224 286c10,12 19,23 26,31 -27,-108 -35,-268 -18,-377 -65,43 -170,18 -250,-65 -78,-81 -209,-162 -287,-178 -58,-11 -106,-45 -131,-91 -23,-43 -26,-91 -8,-136 25,-64 98,-101 197,-101 50,0 103,10 155,29l77 28c75,27 163,43 238,43 56,0 84,-9 96,-15 59,-28 138,-46 195,-46 -29,-16 -113,-21 -180,7 -54,22 -117,34 -178,34 -39,0 -95,-6 -137,-31 -70,-42 -133,-161 -148,-277 -15,-122 52,-308 150,-414 281,-304 621,-512 984,-600 20,-5 41,-8 60,-8 137,0 243,115 243,262l0 1999c0,134 -31,297 -101,338 -40,23 -131,56 -223,81l212 20c64,6 112,78 112,169 0,96 -59,158 -124,134 -7,0 -19,4 -33,12 33,-4 62,1 82,17 60,44 75,229 75,332l0 141c0,133 -58,250 -141,296 83,48 141,167 141,300l0 120c0,151 -111,270 -253,270z"/>
   <path class="fil10" d="M46531 16687l-10 1c-14,16 -42,118 -42,265l0 141c0,127 67,224 126,231 39,4 104,11 105,61 1,50 -61,60 -103,66 -60,10 -128,110 -128,238l0 120c0,51 19,98 50,132 39,42 94,61 153,50 86,-16 170,-39 251,-66 123,-42 191,-147 182,-198 -9,-54 -7,-82 9,-99l12 -15 24 -3c32,0 52,28 73,69 23,45 68,69 97,51 28,-19 36,-89 2,-156 -27,-54 -32,-86 -17,-110l12 -19 31 -4c23,0 48,15 84,49 28,26 64,42 98,42 17,0 41,-4 58,-21 40,-40 46,-106 25,-137 -17,-25 -37,-61 -20,-93 17,-31 56,-38 109,-11 30,16 90,2 127,-52 33,-50 13,-160 -43,-236 -46,-62 -58,-101 -44,-131 19,-37 63,-42 136,4 63,39 156,-18 191,-116l7 -20c43,-123 13,-287 -42,-356 -56,-70 -190,-121 -296,-105 -29,4 -50,6 -65,6 -49,0 -63,-23 -66,-42 -8,-43 34,-67 132,-103 58,-22 122,-33 185,-33 92,0 170,25 215,69l25 14c16,0 42,-34 48,-108 6,-76 10,-154 10,-232l0 -14c-10,-8 -33,-25 -68,-40 -38,-18 -139,-19 -205,-1 -82,22 -107,-14 -112,-29 -16,-43 26,-86 64,-117 85,-71 204,-107 272,-81l13 -1c8,-8 14,-30 9,-65 -9,-60 -80,-120 -152,-127 -78,-7 -207,71 -283,168l-224 285c-70,90 -106,101 -129,101 -19,0 -35,-8 -45,-22 -18,-22 -18,-56 -4,-110 28,-101 36,-267 18,-368 -16,-86 -9,-116 6,-134l13 -15 25 -3c33,0 54,30 72,63 26,47 99,28 158,-34 91,-94 236,-183 332,-202 33,-7 60,-24 73,-49 11,-20 12,-42 4,-64 -20,-48 -139,-62 -244,-24l-78 29c-138,50 -318,64 -398,25 -47,-22 -111,-38 -155,-38 -14,0 -22,2 -26,3 -40,11 -72,-1 -86,-29 -13,-28 -3,-62 30,-102 29,-37 83,-57 150,-57 46,0 95,10 140,28 79,33 195,36 238,10 41,-25 96,-120 108,-216 11,-86 -39,-249 -128,-345 -269,-292 -595,-491 -942,-576 -105,-25 -199,58 -199,172l0 1999c0,147 40,252 60,264 36,21 148,61 257,87 39,9 112,27 108,81 -4,55 -80,62 -120,66l-268 26c-13,1 -37,34 -37,84 0,35 12,53 15,55l25 -5c64,0 147,65 201,129 51,61 63,88 50,115l-11 24 -31 2c-16,0 -34,-6 -76,-38 -47,-37 -94,-53 -121,-53zm118 1393c-70,0 -134,-28 -182,-80 -46,-50 -72,-118 -72,-190l0 -120c0,-133 59,-252 142,-300 -83,-46 -142,-163 -142,-296l0 -141c0,-103 16,-288 76,-332 20,-16 47,-21 81,-17 -14,-8 -25,-11 -33,-11 -37,13 -80,-4 -103,-44 -14,-24 -21,-56 -21,-91 0,-91 49,-163 113,-169l212 -20c-93,-25 -183,-58 -223,-81 -70,-41 -102,-204 -102,-338l0 -1999c0,-147 107,-262 243,-262 20,0 41,3 60,8 364,88 704,296 985,600 97,106 165,292 149,414 -14,114 -80,235 -148,277 -42,25 -98,31 -137,31 -60,0 -124,-12 -177,-34 -68,-28 -152,-23 -180,-7 58,-1 135,18 195,46 11,6 39,15 96,15 74,0 163,-16 237,-43l78 -28c51,-19 105,-29 154,-29 99,0 172,37 197,101 18,45 16,93 -8,136 -25,46 -73,80 -130,91 -78,16 -210,97 -288,178 -79,83 -184,108 -250,65 17,109 9,269 -18,377 7,-8 16,-19 26,-31l225 -286c95,-121 254,-210 357,-200 111,11 213,101 228,200 8,55 -2,102 -28,132 -27,31 -68,40 -108,25l-23 -3c-43,0 -105,24 -153,61 30,-5 61,-8 92,-8 31,0 88,3 130,22 53,23 116,61 117,104l1 27c0,80 -4,160 -10,240 -9,112 -62,185 -133,185 -20,0 -52,-7 -85,-39 -37,-37 -136,-53 -227,-38 100,17 196,67 249,134 79,100 104,297 55,437l-7 19c-40,111 -131,186 -225,186 -22,0 -44,-5 -63,-13 73,107 91,247 38,326 -45,67 -130,106 -200,92 25,68 5,156 -51,213 -55,55 -155,58 -231,14 27,88 8,177 -51,215 -53,35 -128,22 -179,-28 -20,93 -115,191 -236,232 -85,30 -173,54 -264,70 -16,4 -32,5 -48,5z"/>
   <path class="fil10" d="M40748 13353c-1148,0 -2155,1153 -2155,2467 0,1451 886,2466 2155,2466 1269,0 2155,-1015 2155,-2466 0,-1314 -1007,-2467 -2155,-2467zm0 5018c-1319,0 -2239,-1050 -2239,-2551 0,-1359 1046,-2552 2239,-2552 1193,0 2240,1193 2240,2552 0,1501 -922,2551 -2240,2551z"/>
   <path class="fil10" d="M39804 17344c22,0 39,11 48,30 15,35 -11,73 -44,109l-63 72c-23,27 -34,60 -30,93 4,30 20,56 45,73 198,134 421,225 662,271l33 2c46,0 88,-18 119,-52 32,-35 50,-82 50,-132l0 -308c0,-126 -77,-292 -169,-362 -116,-89 -122,-128 -113,-156 3,-11 22,-48 87,-32l3 1 -18 -28c-62,-82 -63,-225 -2,-324 40,-65 2,-171 -83,-231 -44,-32 -93,-75 -78,-122 9,-28 51,-59 172,-28 23,5 39,7 54,7 88,0 147,-63 147,-158l0 -2218c0,-114 -93,-197 -198,-172 -352,86 -693,297 -962,597 -53,59 -95,182 -92,270l1 26c3,80 37,129 51,129 67,0 136,46 163,107 9,23 80,57 165,57l96 0c32,0 105,0 116,53 10,53 -58,80 -88,92l-61 25c-74,31 -151,122 -169,200l-55 245c-7,32 -23,101 -75,101 -54,0 -65,-75 -70,-107l-57 -392c-9,-65 -63,-96 -123,-71l-148 61c-76,31 -159,124 -178,198 -45,184 -68,372 -68,560 0,28 1,56 2,84 0,13 39,31 93,21 87,-14 226,21 310,79l166 114c41,28 81,61 68,103 -5,15 -29,53 -126,30l-164 -39c-81,-20 -200,-23 -249,-9 -35,10 -63,77 -50,150 48,250 130,483 244,692 30,55 100,65 150,23l135 -117c47,-42 68,-50 86,-50l26 0 16 25c15,28 -1,60 -35,109l-120 172c-43,62 -46,156 -6,202 39,43 135,51 198,15l104 -59c48,-27 70,-31 84,-31zm651 736l0 0c-16,0 -32,-2 -48,-5 -253,-47 -487,-143 -694,-284 -46,-30 -75,-78 -82,-132 -7,-57 11,-115 50,-159l9 -11 -32 19c-40,22 -88,35 -136,35 -68,0 -129,-25 -167,-68 -66,-75 -66,-212 0,-307l21 -30 -4 4c-36,31 -81,48 -126,48 -64,0 -122,-35 -154,-95 -118,-216 -203,-457 -253,-717 -21,-112 27,-222 109,-247 36,-10 81,-12 113,-12 60,0 126,8 180,20l106 26 -118 -81c-66,-45 -179,-76 -248,-65 -106,19 -190,-29 -192,-102 -1,-29 -1,-58 -1,-87 0,-195 23,-390 70,-580 25,-102 126,-214 228,-257l148 -60c24,-11 49,-15 74,-15 85,0 152,60 165,151l48 333 42 -186c24,-104 120,-219 220,-259l18 -7 -49 0c-98,0 -213,-37 -243,-108 -13,-30 -53,-57 -85,-57 -73,0 -131,-90 -136,-210l-1 -26c-4,-110 47,-255 114,-330 284,-316 632,-531 1005,-622 20,-5 40,-8 60,-8 136,0 243,115 243,262l0 2218c0,141 -97,243 -232,243 -22,0 -45,-3 -67,-8 -16,-4 -28,-7 -38,-9l7 6c123,89 169,240 105,344 -42,70 -43,174 -2,228 48,63 44,104 33,127 -5,10 -19,31 -51,37 11,10 25,22 42,35 114,87 203,276 203,430l0 308c0,72 -26,139 -72,190 -48,51 -113,80 -182,80z"/>
   <path class="fil10" d="M41098 16948c40,0 53,27 56,36 9,28 2,67 -113,156 -92,70 -169,236 -169,362l0 308c0,115 91,202 202,182 241,-46 463,-137 661,-271 25,-17 42,-43 45,-73 5,-33 -6,-66 -29,-93l-64 -72c-32,-36 -59,-74 -43,-109 8,-19 26,-30 48,-30 14,0 36,4 84,31l104 59c63,36 160,28 197,-15 40,-46 38,-140 -6,-202l-119 -172c-34,-49 -50,-81 -35,-109l12 -23 29 -2c19,0 40,8 87,50l135 116c49,43 120,33 150,-22 113,-209 195,-442 243,-692 14,-73 -15,-140 -49,-150 -49,-14 -168,-11 -249,9l-164 39c-97,23 -121,-15 -126,-30 -13,-42 27,-75 67,-103l167 -114c84,-58 223,-93 310,-79 54,10 92,-8 93,-21 1,-28 2,-56 2,-84 0,-188 -24,-376 -69,-560 -17,-74 -101,-167 -178,-198l-147 -61c-60,-25 -114,6 -123,71l-58 392c-4,32 -15,107 -70,107 -52,0 -67,-69 -74,-101l-55 -245c-18,-78 -95,-169 -169,-200l-62 -25c-29,-12 -97,-39 -87,-92 11,-53 84,-53 116,-53l96 0c85,0 156,-34 165,-57 27,-61 97,-107 162,-107 15,0 49,-49 52,-129l0 -26c4,-88 -39,-211 -92,-270 -268,-300 -610,-511 -961,-597 -105,-25 -198,58 -198,172l0 2218c0,47 14,87 42,116 36,38 92,51 152,36 142,-35 169,-1 179,27 15,47 -34,90 -79,122 -84,60 -122,166 -82,231 61,99 60,242 -3,324l-17 28 3 -1 31 -4zm-57 1132c-143,0 -254,-119 -254,-270l0 -308c0,-154 89,-343 202,-430 18,-13 32,-25 43,-35 -32,-6 -47,-27 -51,-37 -12,-23 -15,-64 33,-127 42,-54 40,-158 -3,-228 -63,-104 -17,-255 106,-344l8 -6c-9,2 -20,4 -32,7 -29,7 -52,10 -75,10 -64,0 -123,-24 -166,-68 -42,-44 -65,-107 -65,-175l0 -2218c0,-147 106,-262 243,-262 20,0 40,3 60,8 373,91 720,306 1005,622 67,75 117,220 114,330l-2 26c-3,120 -62,210 -136,210 -31,0 -71,27 -84,57 -30,71 -145,108 -243,108l-49 0 18 7c100,40 196,155 220,259l42 186 48 -333c13,-91 79,-151 165,-151 24,0 49,4 74,15l148 60c103,43 203,155 228,257 47,190 70,385 70,580 0,29 0,58 -1,87 -3,73 -86,121 -192,102 -69,-11 -182,20 -248,65l-118 81 106 -26c54,-12 120,-20 180,-20 32,0 78,2 113,12 82,25 130,135 109,247 -50,260 -135,501 -253,717 -33,60 -90,95 -155,95 -44,0 -89,-17 -125,-48l-4 -4 21 30c65,95 65,232 0,307 -38,43 -99,68 -167,68 -48,0 -96,-13 -136,-35l-32 -19 9 11c39,44 57,102 50,159 -7,54 -36,102 -83,132 -207,141 -440,237 -693,284 -16,3 -32,5 -48,5z"/>
   <polygon class="fil10" points="37367,13311 38320,13311 38320,13115 37367,13115 "/>
   <polygon class="fil10" points="37367,13784 38320,13784 38320,13588 37367,13588 "/>
   <polygon class="fil10" points="37367,14259 38320,14259 38320,14062 37367,14062 "/>
   <polygon class="fil10" points="37367,19178 38320,19178 38320,18982 37367,18982 "/>
   <polygon class="fil10" points="37367,19651 38320,19651 38320,19455 37367,19455 "/>
   <polygon class="fil10" points="37367,20126 38320,20126 38320,19929 37367,19929 "/>
   <polygon class="fil10" points="43052,19178 44005,19178 44005,18982 43052,18982 "/>
   <polygon class="fil10" points="43052,19651 44005,19651 44005,19455 43052,19455 "/>
   <polygon class="fil10" points="43052,20126 44005,20126 44005,19929 43052,19929 "/>
   <polygon class="fil10" points="43052,13311 44005,13311 44005,13115 43052,13115 "/>
   <polygon class="fil10" points="43052,13784 44005,13784 44005,13588 43052,13588 "/>
   <polygon class="fil10" points="43052,14259 44005,14259 44005,14062 43052,14062 "/>
  </g>
  <path class="fil27" d="M27216 15522l358 1131c17,56 -419,75 -489,76 22,-205 44,-411 66,-616 22,-197 43,-394 65,-591z"/>
  <line class="fil28 str0" x1="27339" y1="14650" x2="26958" y2= "14650" />
  <g id="_2825796250032">
   <path class="fil29" d="M16109 18680l373 -4c67,-241 614,-12929 686,-13917 44,-615 250,-4326 199,-4671l-13105 -83 -1873 -5c-18,816 93,1601 109,2415 15,759 99,1571 133,2329l763 14021 12715 -85z"/>
   <path class="fil30" d="M3712 1410l732 16214 10737 -275 620 -16118c-949,-32 -2109,-3 -3031,31 -1001,37 -2044,21 -3049,26l-6009 122z"/>
   <path class="fil31" d="M8041 5813c-55,335 -215,586 -291,949 -26,310 58,583 146,850l101 510c75,108 70,643 61,819 -212,102 -416,93 -673,246 -609,360 -814,968 -1101,1661 -479,1163 -996,1143 -1550,1714 -88,92 -127,155 -231,212 -18,408 114,4122 178,4324l10130 17 258 -6517c-94,-68 -56,-44 -127,-170 -231,-407 -301,-455 -628,-771 -300,-290 -1203,-794 -1442,-1301 -169,-151 -305,-598 -347,-896l-129 -914 -169 -1227c-187,-669 -314,-1069 -725,-1458 -367,-348 -929,-599 -1627,-505 -651,88 -980,419 -1291,861 -134,191 -350,360 -458,617 -145,344 27,702 -85,979z"/>
   <path class="fil32" d="M4213 5003c314,105 414,480 811,488 334,7 688,-240 1046,-271 766,-65 1055,751 1971,593 112,-277 -60,-635 85,-979 108,-257 324,-426 458,-617 311,-442 640,-773 1291,-861 698,-94 1260,157 1627,505 411,389 538,789 725,1458 133,63 157,139 359,183 782,171 348,-149 1077,574 511,507 1097,21 1593,-191 47,-350 188,-3788 143,-3982l-11300 -243 114 3343z"/>
   <polygon class="fil33" points="3774,18763 16482,18676 17375,271 17780,270 16894,18976 3788,19066 "/>
   <path class="fil34" d="M11030 9854c-157,185 85,251 -186,395 -377,225 -1042,356 -1549,232 -444,-109 -1028,-402 -1146,-708 -92,81 -164,267 -222,387 -78,164 -141,278 -198,447 -547,1623 904,2311 895,2654 82,103 284,185 396,236 -30,-418 306,-535 481,-619 207,-98 554,-351 621,-496l-285 111c91,-504 152,-814 492,-1189 250,-275 689,-505 1035,-648 229,-94 614,-264 878,-278 -83,-194 -442,-230 916,-293 -143,-301 -461,-293 -817,-221l263 -265c-368,-14 -621,185 -862,303 103,-111 213,-198 282,-361 -233,66 -391,103 -572,232 -174,124 -296,273 -444,351l22 -270z"/>
   <path class="fil35" d="M4311 7846c672,-138 1410,62 1997,-273 224,-129 343,-402 547,-566 209,-168 565,-235 895,-245 76,-363 236,-614 291,-949 -916,158 -1205,-658 -1971,-593 -358,31 -712,278 -1046,271 -397,-8 -497,-383 -811,-488l98 2843z"/>
   <path class="fil36" d="M9214 7566c422,92 226,415 956,-113 242,-175 600,-413 645,-817 95,-851 40,-1756 -555,-2362 -120,-174 -775,-171 -933,-136l-234 122c-377,197 -567,439 -624,953 -58,518 49,1555 344,1983 95,138 258,328 401,370z"/>
   <path class="fil37" d="M4366 9403l137 3371c104,-57 143,-120 231,-212 554,-571 1071,-551 1550,-1714 287,-693 492,-1301 1101,-1661 257,-153 461,-144 673,-246 9,-176 14,-711 -61,-819l13 317c-138,95 -269,163 -408,248 -123,73 -251,154 -383,224 -246,130 -552,311 -904,319 -444,10 -653,-256 -904,-353 -287,-111 -777,-92 -1060,29l15 497z"/>
   <path class="fil36" d="M9361 7763c65,212 164,474 10,647 -131,148 -432,158 -601,260 -235,143 -146,349 -330,531 -160,158 -206,274 -291,572 118,306 702,599 1146,708 507,124 1172,-7 1549,-232 21,-445 177,-865 207,-1342 37,-587 -168,-912 -186,-1452 -6,7 -14,18 -18,24l-47 69c-107,175 -168,305 -362,460l-490 428c-201,40 -327,-434 -433,-583l-119 -97c-2,0 -16,9 -17,2 -2,-6 -15,0 -18,5z"/>
   <path class="fil36" d="M7733 13948l204 52c-42,37 11,12 -93,59 -195,87 -598,210 -565,655 15,188 395,762 542,828 257,-116 2,-388 363,-500 102,-32 654,-108 725,-90 274,70 384,125 710,146 334,22 501,-105 294,-359 214,-111 78,-280 -23,-408 -44,-56 -95,-131 -136,-186 -58,-76 -98,-107 -145,-177l-322 -294c-90,-40 -189,-116 -267,-177 -112,-51 -314,-133 -396,-236l-283 -79c-342,-24 -472,-14 -629,206 -231,324 -96,352 21,560z"/>
   <path class="fil38" d="M4333 8289l33 1114 -15 -497c283,-121 773,-140 1060,-29 251,97 460,363 904,353 352,-8 658,-189 904,-319 132,-70 260,-151 383,-224 139,-85 270,-153 408,-248l-13 -317 -101 -510c-247,111 -544,228 -819,334 -455,176 -479,148 -957,83 -354,-47 -568,157 -826,285 -412,205 -535,-2 -961,-25z"/>
   <path class="fil38" d="M12525 7460c42,298 178,745 347,896 195,-74 430,-156 687,-138 527,39 642,632 1106,573 255,-32 324,-256 484,-389l4 150 64 -1703c-497,157 -496,586 -1233,482 -261,-36 -537,-120 -805,-60 -258,58 -344,216 -654,189z"/>
   <path class="fil39" d="M3661 17137c214,-514 -318,-14749 -394,-14848 -56,185 40,3206 51,3676 32,1276 19,2559 36,3837 8,629 171,6762 307,7335z"/>
   <path class="fil34" d="M9287 13674l322 294c755,49 464,1288 1119,1101 148,-301 -308,-684 69,-677 185,3 493,444 580,567 218,-438 267,-195 604,-280 94,-65 135,-248 -167,-407 -180,-94 -88,19 -131,-131 64,-134 110,-144 297,-117 86,13 253,76 330,112 172,79 391,208 478,311 12,-187 -137,-365 -260,-432 194,-23 314,57 442,81 -74,-162 -190,-307 -336,-393 -163,-95 -394,-196 -637,-120 -218,67 -339,174 -587,160 -519,-30 -342,-88 -544,181 -396,-396 -717,32 -786,44 -215,-16 -376,-245 -793,-294z"/>
   <path class="fil32" d="M4311 7846l22 443c426,23 549,230 961,25 258,-128 472,-332 826,-285 478,65 502,93 957,-83 275,-106 572,-223 819,-334 -88,-267 -172,-540 -146,-850 -330,10 -686,77 -895,245 -204,164 -323,437 -547,566 -587,335 -1325,135 -1997,273z"/>
   <path class="fil37" d="M12872 8356c239,507 1142,1011 1442,1301 327,316 397,364 628,771 71,126 33,102 127,170l84 -2046 -4 -150c-160,133 -229,357 -484,389 -464,59 -579,-534 -1106,-573 -257,-18 -492,64 -687,138z"/>
   <path class="fil32" d="M12396 6546l129 914c310,27 396,-131 654,-189 268,-60 544,24 805,60 737,104 736,-325 1233,-482l11 -418c-656,-142 -816,80 -1348,212 -391,97 -1051,-49 -1484,-97z"/>
   <path class="fil35" d="M12396 6546c433,48 1093,194 1484,97 532,-132 692,-354 1348,-212l28 -546c-496,212 -1082,698 -1593,191 -729,-723 -295,-403 -1077,-574 -202,-44 -226,-120 -359,-183l169 1227z"/>
   <path class="fil40" d="M9214 7566c47,95 81,118 147,197 3,-5 16,-11 18,-5 1,7 15,-2 17,-2l119 97c106,149 232,623 433,583l490 -428c194,-155 255,-285 362,-460l47 -69c4,-6 12,-17 18,-24 18,540 223,865 186,1452 -30,477 -186,897 -207,1342 271,-144 29,-210 186,-395 -32,-446 224,-962 223,-1450 0,-440 -271,-489 -296,-1399 -16,-527 58,-1128 -34,-1635 -91,-505 -276,-951 -663,-1096 595,606 650,1511 555,2362 -45,404 -403,642 -645,817 -730,528 -534,205 -956,113z"/>
   <path class="fil34" d="M7733 13948c-117,-208 -252,-236 -21,-560 157,-220 287,-230 629,-206 -145,-136 -406,-59 -557,25 -218,121 -175,218 -321,410 -137,-227 119,-863 -363,-611 -90,-674 -465,-36 -677,158l-72 -255c-224,198 -328,823 273,709 -13,201 -24,417 85,579 183,-41 181,-284 355,-379l23 589c373,41 362,-485 646,-459z"/>
   <path class="fil41" d="M9302 6545l400 -22c-10,-227 -105,-687 -195,-843 -118,164 -177,629 -205,865z"/>
  </g>
 </g>
</svg>
